<svg width="364" height="234" viewBox="0 0 364 234" fill="none" xmlns="http://www.w3.org/2000/svg">
<g filter="url(#filter0_b_1509_188)">
<rect x="2" y="2" width="360" height="230" rx="15.1928" fill="url(#paint0_linear_1509_188)"/>
<rect x="1.36697" y="1.36697" width="361.266" height="231.266" rx="15.8259" stroke="url(#paint1_radial_1509_188)" stroke-width="1.26607"/>
<rect x="1.36697" y="1.36697" width="361.266" height="231.266" rx="15.8259" stroke="url(#paint2_linear_1509_188)" stroke-opacity="0.4" stroke-width="1.26607"/>
<rect x="1.36697" y="1.36697" width="361.266" height="231.266" rx="15.8259" stroke="url(#paint3_linear_1509_188)" stroke-width="1.26607"/>
</g>
<mask id="mask0_1509_188" style="mask-type:alpha" maskUnits="userSpaceOnUse" x="2" y="2" width="360" height="230">
<rect x="2" y="2" width="360" height="230" rx="15.4011" fill="#16084C"/>
</mask>
<g mask="url(#mask0_1509_188)">
<g filter="url(#filter1_f_1509_188)">
<path d="M453.518 -133.506C475.881 -87.3533 416.166 -11.492 320.142 35.9346C224.118 83.3613 128.147 84.3937 105.784 38.2406C83.4215 -7.91245 143.136 -83.7738 239.16 -131.2C335.184 -178.627 431.156 -179.659 453.518 -133.506Z" fill="#06F001"/>
</g>
<g filter="url(#filter2_f_1509_188)">
<path d="M401.134 -167.756C423.497 -121.603 363.783 -45.742 267.758 1.68464C171.734 49.1113 75.7629 50.1437 53.4003 3.99062C31.0377 -42.1624 90.7521 -118.024 186.776 -165.45C282.8 -212.877 378.772 -213.909 401.134 -167.756Z" fill="#9A32CB"/>
</g>
</g>
<g filter="url(#filter3_di_1509_188)">
<path d="M19.1506 96.9318V94.0256L26.4375 82.5455H28.9432V86.5682H27.4602L22.8665 93.8381V93.9744H33.2216V96.9318H19.1506ZM27.5284 100V96.0455L27.5966 94.7585V82.5455H31.0568V100H27.5284ZM36.6404 100V97.3409L42.8535 91.5881C43.3819 91.0767 43.8251 90.6165 44.183 90.2074C44.5466 89.7983 44.8222 89.3977 45.0097 89.0057C45.1972 88.608 45.291 88.179 45.291 87.7188C45.291 87.2074 45.1745 86.767 44.9415 86.3977C44.7086 86.0227 44.3904 85.7358 43.987 85.5369C43.5836 85.3324 43.1262 85.2301 42.6148 85.2301C42.0807 85.2301 41.6148 85.3381 41.2171 85.554C40.8194 85.7699 40.5126 86.0795 40.2966 86.483C40.0807 86.8864 39.9728 87.3665 39.9728 87.9233H36.4699C36.4699 86.7812 36.7285 85.7898 37.2455 84.9489C37.7626 84.108 38.487 83.4574 39.4188 82.9972C40.3506 82.5369 41.4245 82.3068 42.6404 82.3068C43.8904 82.3068 44.9785 82.5284 45.9046 82.9716C46.8364 83.4091 47.5609 84.017 48.0779 84.7955C48.5949 85.5739 48.8535 86.4659 48.8535 87.4716C48.8535 88.1307 48.7228 88.7812 48.4614 89.4233C48.2057 90.0653 47.7484 90.7784 47.0893 91.5625C46.4302 92.3409 45.5012 93.2756 44.3023 94.3665L41.754 96.8636V96.983H49.0836V100H36.6404ZM52.0784 96.9318V94.0256L59.3653 82.5455H61.871V86.5682H60.388L55.7943 93.8381V93.9744H66.1494V96.9318H52.0784ZM60.4562 100V96.0455L60.5244 94.7585V82.5455H63.9846V100H60.4562ZM69.5682 100V97.3409L75.7813 91.5881C76.3097 91.0767 76.7529 90.6165 77.1108 90.2074C77.4745 89.7983 77.75 89.3977 77.9375 89.0057C78.125 88.608 78.2188 88.179 78.2188 87.7188C78.2188 87.2074 78.1023 86.767 77.8693 86.3977C77.6364 86.0227 77.3182 85.7358 76.9148 85.5369C76.5114 85.3324 76.054 85.2301 75.5426 85.2301C75.0086 85.2301 74.5426 85.3381 74.1449 85.554C73.7472 85.7699 73.4404 86.0795 73.2245 86.483C73.0086 86.8864 72.9006 87.3665 72.9006 87.9233H69.3978C69.3978 86.7812 69.6563 85.7898 70.1733 84.9489C70.6904 84.108 71.4148 83.4574 72.3466 82.9972C73.2784 82.5369 74.3523 82.3068 75.5682 82.3068C76.8182 82.3068 77.9063 82.5284 78.8324 82.9716C79.7642 83.4091 80.4887 84.017 81.0057 84.7955C81.5228 85.5739 81.7813 86.4659 81.7813 87.4716C81.7813 88.1307 81.6506 88.7812 81.3892 89.4233C81.1336 90.0653 80.6762 90.7784 80.0171 91.5625C79.358 92.3409 78.429 93.2756 77.2301 94.3665L74.6818 96.8636V96.983H82.0114V100H69.5682ZM91.8959 96.9318V94.0256L99.1828 82.5455H101.688V86.5682H100.206L95.6118 93.8381V93.9744H105.967V96.9318H91.8959ZM100.274 100V96.0455L100.342 94.7585V82.5455H103.802V100H100.274ZM115.761 100.239C114.556 100.239 113.482 100.017 112.539 99.5739C111.602 99.1307 110.857 98.5199 110.306 97.7415C109.755 96.9631 109.468 96.071 109.445 95.0653H113.025C113.065 95.7415 113.349 96.2898 113.877 96.7102C114.406 97.1307 115.033 97.3409 115.761 97.3409C116.34 97.3409 116.852 97.2131 117.295 96.9574C117.744 96.696 118.093 96.3352 118.343 95.875C118.599 95.4091 118.727 94.875 118.727 94.2727C118.727 93.6591 118.596 93.1193 118.335 92.6534C118.079 92.1875 117.724 91.8239 117.269 91.5625C116.815 91.3011 116.295 91.1676 115.71 91.1619C115.198 91.1619 114.701 91.267 114.218 91.4773C113.741 91.6875 113.369 91.9744 113.102 92.3381L109.82 91.75L110.647 82.5455H121.318V85.5625H113.69L113.238 89.9347H113.34C113.647 89.5028 114.11 89.1449 114.729 88.8608C115.349 88.5767 116.042 88.4347 116.809 88.4347C117.86 88.4347 118.798 88.6818 119.622 89.1761C120.445 89.6705 121.096 90.3494 121.573 91.2131C122.05 92.071 122.286 93.0597 122.281 94.179C122.286 95.3551 122.014 96.4006 121.462 97.3153C120.917 98.2244 120.153 98.9403 119.17 99.4631C118.193 99.9801 117.056 100.239 115.761 100.239ZM132.513 100.239C131.616 100.233 130.749 100.082 129.914 99.7869C129.084 99.4915 128.34 99.0114 127.681 98.3466C127.022 97.6818 126.499 96.8011 126.113 95.7045C125.732 94.608 125.542 93.2614 125.542 91.6648C125.547 90.1989 125.715 88.8892 126.045 87.7358C126.38 86.5767 126.857 85.5937 127.476 84.7869C128.101 83.9801 128.849 83.3665 129.718 82.946C130.587 82.5199 131.562 82.3068 132.641 82.3068C133.806 82.3068 134.834 82.5341 135.726 82.9886C136.618 83.4375 137.334 84.0483 137.874 84.821C138.42 85.5938 138.749 86.4602 138.863 87.4205H135.224C135.082 86.8125 134.783 86.3352 134.329 85.9886C133.874 85.642 133.312 85.4688 132.641 85.4688C131.505 85.4688 130.641 85.9631 130.05 86.9517C129.465 87.9403 129.167 89.2841 129.155 90.983H129.275C129.536 90.4659 129.888 90.0256 130.332 89.6619C130.78 89.2926 131.289 89.0114 131.857 88.8182C132.431 88.6193 133.036 88.5199 133.672 88.5199C134.707 88.5199 135.627 88.7642 136.434 89.2528C137.241 89.7358 137.877 90.4006 138.343 91.2472C138.809 92.0937 139.042 93.0625 139.042 94.1534C139.042 95.3352 138.766 96.3864 138.215 97.3068C137.67 98.2273 136.905 98.9489 135.922 99.4716C134.945 99.9886 133.809 100.244 132.513 100.239ZM132.496 97.3409C133.064 97.3409 133.573 97.2045 134.022 96.9318C134.471 96.6591 134.823 96.2898 135.079 95.8239C135.334 95.358 135.462 94.8352 135.462 94.2557C135.462 93.6761 135.334 93.1562 135.079 92.696C134.829 92.2358 134.482 91.8693 134.039 91.5966C133.596 91.3239 133.09 91.1875 132.522 91.1875C132.096 91.1875 131.701 91.267 131.337 91.4261C130.979 91.5852 130.664 91.8068 130.391 92.0909C130.124 92.375 129.914 92.7045 129.76 93.0795C129.607 93.4489 129.53 93.8437 129.53 94.2642C129.53 94.8267 129.658 95.3409 129.914 95.8068C130.175 96.2727 130.528 96.6449 130.971 96.9233C131.42 97.2017 131.928 97.3409 132.496 97.3409ZM142.618 100V97.3409L148.831 91.5881C149.36 91.0767 149.803 90.6165 150.161 90.2074C150.524 89.7983 150.8 89.3977 150.988 89.0057C151.175 88.608 151.269 88.179 151.269 87.7188C151.269 87.2074 151.152 86.767 150.919 86.3977C150.686 86.0227 150.368 85.7358 149.965 85.5369C149.561 85.3324 149.104 85.2301 148.593 85.2301C148.059 85.2301 147.593 85.3381 147.195 85.554C146.797 85.7699 146.49 86.0795 146.274 86.483C146.059 86.8864 145.951 87.3665 145.951 87.9233H142.448C142.448 86.7812 142.706 85.7898 143.223 84.9489C143.74 84.108 144.465 83.4574 145.397 82.9972C146.328 82.5369 147.402 82.3068 148.618 82.3068C149.868 82.3068 150.956 82.5284 151.882 82.9716C152.814 83.4091 153.539 84.017 154.056 84.7955C154.573 85.5739 154.831 86.4659 154.831 87.4716C154.831 88.1307 154.701 88.7812 154.439 89.4233C154.184 90.0653 153.726 90.7784 153.067 91.5625C152.408 92.3409 151.479 93.2756 150.28 94.3665L147.732 96.8636V96.983H155.061V100H142.618ZM165.9 100L173.136 85.6818V85.5625H164.707V82.5455H176.954V85.6051L169.71 100H165.9ZM181.603 100L188.838 85.6818V85.5625H180.409V82.5455H192.657V85.6051L185.412 100H181.603ZM203.739 82.5455V100H200.049V86.0483H199.947L195.95 88.554V85.2812L200.271 82.5455H203.739ZM215.692 100.384C214.226 100.378 212.964 100.017 211.908 99.3011C210.856 98.5852 210.047 97.5483 209.479 96.1903C208.916 94.8324 208.638 93.1989 208.643 91.2898C208.643 89.3864 208.925 87.7642 209.487 86.4233C210.055 85.0824 210.865 84.0625 211.916 83.3636C212.973 82.6591 214.231 82.3068 215.692 82.3068C217.152 82.3068 218.408 82.6591 219.459 83.3636C220.516 84.0682 221.328 85.0909 221.896 86.4318C222.464 87.767 222.746 89.3864 222.74 91.2898C222.74 93.2045 222.456 94.8409 221.888 96.1989C221.325 97.5568 220.518 98.5937 219.467 99.3097C218.416 100.026 217.158 100.384 215.692 100.384ZM215.692 97.3239C216.692 97.3239 217.49 96.821 218.087 95.8153C218.683 94.8097 218.979 93.3011 218.973 91.2898C218.973 89.9659 218.837 88.8636 218.564 87.983C218.297 87.1023 217.916 86.4403 217.422 85.9972C216.933 85.554 216.356 85.3324 215.692 85.3324C214.697 85.3324 213.902 85.8295 213.305 86.8239C212.709 87.8182 212.408 89.3068 212.402 91.2898C212.402 92.6307 212.535 93.75 212.802 94.6477C213.075 95.5398 213.459 96.2102 213.953 96.6591C214.447 97.1023 215.027 97.3239 215.692 97.3239ZM239.298 100.239C238.025 100.239 236.891 100.02 235.897 99.5824C234.909 99.1392 234.127 98.5312 233.553 97.7585C232.985 96.9801 232.693 96.0824 232.676 95.0653H236.391C236.414 95.4915 236.553 95.8665 236.809 96.1903C237.07 96.5085 237.417 96.7557 237.849 96.9318C238.281 97.108 238.766 97.196 239.306 97.196C239.869 97.196 240.366 97.0966 240.798 96.8977C241.23 96.6989 241.568 96.4233 241.812 96.071C242.056 95.7187 242.178 95.3125 242.178 94.8523C242.178 94.3864 242.048 93.9744 241.786 93.6165C241.531 93.2528 241.161 92.9687 240.678 92.7642C240.201 92.5597 239.633 92.4574 238.974 92.4574H237.346V89.7472H238.974C239.531 89.7472 240.022 89.6506 240.448 89.4574C240.88 89.2642 241.215 88.9972 241.454 88.6562C241.693 88.3097 241.812 87.9062 241.812 87.446C241.812 87.0085 241.707 86.625 241.497 86.2955C241.292 85.9602 241.002 85.6989 240.627 85.5114C240.258 85.3239 239.826 85.2301 239.332 85.2301C238.832 85.2301 238.374 85.321 237.96 85.5028C237.545 85.679 237.212 85.9318 236.962 86.2614C236.712 86.5909 236.579 86.9773 236.562 87.4205H233.025C233.042 86.4148 233.329 85.5284 233.886 84.7614C234.443 83.9943 235.193 83.3949 236.136 82.9631C237.085 82.5256 238.156 82.3068 239.349 82.3068C240.553 82.3068 241.607 82.5256 242.511 82.9631C243.414 83.4006 244.116 83.9915 244.616 84.7358C245.122 85.4744 245.372 86.304 245.366 87.2244C245.372 88.2017 245.068 89.017 244.454 89.6705C243.846 90.3239 243.053 90.7386 242.076 90.9148V91.0511C243.36 91.2159 244.337 91.6619 245.008 92.3892C245.684 93.1108 246.019 94.0142 246.014 95.0994C246.019 96.0938 245.732 96.9773 245.153 97.75C244.579 98.5227 243.786 99.1307 242.775 99.5739C241.764 100.017 240.605 100.239 239.298 100.239ZM256.001 100.239C254.797 100.239 253.723 100.017 252.78 99.5739C251.842 99.1307 251.098 98.5199 250.547 97.7415C249.996 96.9631 249.709 96.071 249.686 95.0653H253.266C253.305 95.7415 253.589 96.2898 254.118 96.7102C254.646 97.1307 255.274 97.3409 256.001 97.3409C256.581 97.3409 257.092 97.2131 257.535 96.9574C257.984 96.696 258.334 96.3352 258.584 95.875C258.839 95.4091 258.967 94.875 258.967 94.2727C258.967 93.6591 258.837 93.1193 258.575 92.6534C258.32 92.1875 257.964 91.8239 257.51 91.5625C257.055 91.3011 256.535 91.1676 255.95 91.1619C255.439 91.1619 254.942 91.267 254.459 91.4773C253.981 91.6875 253.609 91.9744 253.342 92.3381L250.061 91.75L250.888 82.5455H261.558V85.5625H253.93L253.479 89.9347H253.581C253.888 89.5028 254.351 89.1449 254.97 88.8608C255.589 88.5767 256.283 88.4347 257.05 88.4347C258.101 88.4347 259.038 88.6818 259.862 89.1761C260.686 89.6705 261.337 90.3494 261.814 91.2131C262.291 92.071 262.527 93.0597 262.521 94.179C262.527 95.3551 262.254 96.4006 261.703 97.3153C261.158 98.2244 260.393 98.9403 259.41 99.4631C258.433 99.9801 257.297 100.239 256.001 100.239ZM272.899 100.384C271.433 100.378 270.172 100.017 269.115 99.3011C268.064 98.5852 267.254 97.5483 266.686 96.1903C266.123 94.8324 265.845 93.1989 265.851 91.2898C265.851 89.3864 266.132 87.7642 266.694 86.4233C267.262 85.0824 268.072 84.0625 269.123 83.3636C270.18 82.6591 271.439 82.3068 272.899 82.3068C274.359 82.3068 275.615 82.6591 276.666 83.3636C277.723 84.0682 278.535 85.0909 279.103 86.4318C279.672 87.767 279.953 89.3864 279.947 91.2898C279.947 93.2045 279.663 94.8409 279.095 96.1989C278.532 97.5568 277.726 98.5937 276.674 99.3097C275.623 100.026 274.365 100.384 272.899 100.384ZM272.899 97.3239C273.899 97.3239 274.697 96.821 275.294 95.8153C275.89 94.8097 276.186 93.3011 276.18 91.2898C276.18 89.9659 276.044 88.8636 275.771 87.983C275.504 87.1023 275.123 86.4403 274.629 85.9972C274.14 85.554 273.564 85.3324 272.899 85.3324C271.905 85.3324 271.109 85.8295 270.512 86.8239C269.916 87.8182 269.615 89.3068 269.609 91.2898C269.609 92.6307 269.743 93.75 270.01 94.6477C270.282 95.5398 270.666 96.2102 271.16 96.6591C271.655 97.1023 272.234 97.3239 272.899 97.3239ZM283.76 100L290.996 85.6818V85.5625H282.567V82.5455H294.814V85.6051L287.57 100H283.76Z" fill="#E8E8E8"/>
</g>
<path d="M24.6477 124.016V131.289H23.7955L19.8324 125.578H19.7614V131.289H18.8807V124.016H19.733L23.7102 129.74H23.7812V124.016H24.6477ZM28.5123 131.402C28.0198 131.402 27.5878 131.285 27.2161 131.051C26.8468 130.816 26.5579 130.489 26.3496 130.067C26.1436 129.646 26.0407 129.153 26.0407 128.59C26.0407 128.022 26.1436 127.526 26.3496 127.102C26.5579 126.678 26.8468 126.349 27.2161 126.115C27.5878 125.88 28.0198 125.763 28.5123 125.763C29.0047 125.763 29.4355 125.88 29.8049 126.115C30.1766 126.349 30.4654 126.678 30.6713 127.102C30.8797 127.526 30.9838 128.022 30.9838 128.59C30.9838 129.153 30.8797 129.646 30.6713 130.067C30.4654 130.489 30.1766 130.816 29.8049 131.051C29.4355 131.285 29.0047 131.402 28.5123 131.402ZM28.5123 130.649C28.8863 130.649 29.1941 130.554 29.4355 130.362C29.677 130.17 29.8558 129.918 29.9718 129.605C30.0878 129.293 30.1458 128.954 30.1458 128.59C30.1458 128.225 30.0878 127.886 29.9718 127.571C29.8558 127.256 29.677 127.001 29.4355 126.807C29.1941 126.613 28.8863 126.516 28.5123 126.516C28.1382 126.516 27.8304 126.613 27.589 126.807C27.3475 127.001 27.1687 127.256 27.0527 127.571C26.9367 127.886 26.8787 128.225 26.8787 128.59C26.8787 128.954 26.9367 129.293 27.0527 129.605C27.1687 129.918 27.3475 130.17 27.589 130.362C27.8304 130.554 28.1382 130.649 28.5123 130.649ZM32.2631 131.289V125.834H33.0728V126.686H33.1438C33.2575 126.395 33.4409 126.169 33.6942 126.008C33.9476 125.845 34.2518 125.763 34.6069 125.763C34.9667 125.763 35.2662 125.845 35.5053 126.008C35.7468 126.169 35.935 126.395 36.07 126.686H36.1268C36.2665 126.405 36.476 126.181 36.7553 126.015C37.0347 125.847 37.3697 125.763 37.7603 125.763C38.248 125.763 38.6469 125.916 38.957 126.221C39.2672 126.524 39.4222 126.997 39.4222 127.638V131.289H38.5842V127.638C38.5842 127.236 38.4741 126.948 38.2539 126.775C38.0337 126.602 37.7745 126.516 37.4762 126.516C37.0927 126.516 36.7956 126.632 36.5849 126.864C36.3742 127.094 36.2688 127.385 36.2688 127.738V131.289H35.4165V127.553C35.4165 127.243 35.3159 126.993 35.1147 126.804C34.9135 126.612 34.6542 126.516 34.337 126.516C34.1192 126.516 33.9156 126.574 33.7262 126.69C33.5392 126.806 33.3877 126.967 33.2717 127.173C33.158 127.377 33.1012 127.612 33.1012 127.88V131.289H32.2631ZM43.2415 131.402C42.7159 131.402 42.2625 131.286 41.8814 131.054C41.5026 130.82 41.2102 130.493 41.0043 130.074C40.8007 129.653 40.6989 129.163 40.6989 128.604C40.6989 128.045 40.8007 127.553 41.0043 127.127C41.2102 126.698 41.4967 126.364 41.8636 126.125C42.233 125.884 42.6638 125.763 43.1562 125.763C43.4403 125.763 43.7209 125.81 43.9979 125.905C44.2749 126 44.527 126.154 44.7543 126.367C44.9815 126.578 45.1626 126.857 45.2976 127.205C45.4325 127.553 45.5 127.981 45.5 128.49V128.846H41.2955V128.121H44.6477C44.6477 127.813 44.5862 127.539 44.4631 127.297C44.3423 127.056 44.1695 126.865 43.9446 126.725C43.7221 126.586 43.4593 126.516 43.1562 126.516C42.8224 126.516 42.5336 126.599 42.2898 126.765C42.0483 126.928 41.8625 127.141 41.7322 127.404C41.602 127.667 41.5369 127.948 41.5369 128.249V128.732C41.5369 129.144 41.608 129.493 41.75 129.779C41.8944 130.064 42.0945 130.28 42.3501 130.429C42.6058 130.576 42.9029 130.649 43.2415 130.649C43.4616 130.649 43.6605 130.619 43.8381 130.557C44.018 130.493 44.1731 130.399 44.3033 130.273C44.4335 130.145 44.5341 129.987 44.6051 129.797L45.4148 130.024C45.3295 130.299 45.1863 130.541 44.9851 130.749C44.7839 130.955 44.5353 131.116 44.2393 131.232C43.9434 131.346 43.6108 131.402 43.2415 131.402ZM51.647 131.402C51.1925 131.402 50.7912 131.288 50.4432 131.058C50.0952 130.826 49.8229 130.499 49.6264 130.078C49.4299 129.654 49.3317 129.153 49.3317 128.576C49.3317 128.003 49.4299 127.506 49.6264 127.084C49.8229 126.663 50.0964 126.337 50.4467 126.108C50.7971 125.878 51.2019 125.763 51.6612 125.763C52.0163 125.763 52.2969 125.822 52.5028 125.941C52.7112 126.057 52.8698 126.189 52.9787 126.338C53.09 126.485 53.1764 126.606 53.2379 126.701H53.3089V124.016H54.147V131.289H53.3374V130.451H53.2379C53.1764 130.55 53.0888 130.676 52.9751 130.827C52.8615 130.976 52.6993 131.11 52.4886 131.228C52.2779 131.344 51.9974 131.402 51.647 131.402ZM51.7607 130.649C52.0968 130.649 52.3809 130.562 52.6129 130.387C52.8449 130.209 53.0213 129.964 53.142 129.652C53.2628 129.337 53.3232 128.973 53.3232 128.561C53.3232 128.154 53.264 127.798 53.1456 127.493C53.0272 127.185 52.852 126.946 52.62 126.775C52.388 126.602 52.1016 126.516 51.7607 126.516C51.4055 126.516 51.1096 126.607 50.8729 126.789C50.6385 126.969 50.4621 127.214 50.3438 127.524C50.2277 127.832 50.1697 128.178 50.1697 128.561C50.1697 128.95 50.2289 129.302 50.3473 129.62C50.468 129.935 50.6456 130.185 50.88 130.373C51.1167 130.557 51.4103 130.649 51.7607 130.649ZM58.0142 131.402C57.5218 131.402 57.0897 131.285 56.718 131.051C56.3487 130.816 56.0599 130.489 55.8516 130.067C55.6456 129.646 55.5426 129.153 55.5426 128.59C55.5426 128.022 55.6456 127.526 55.8516 127.102C56.0599 126.678 56.3487 126.349 56.718 126.115C57.0897 125.88 57.5218 125.763 58.0142 125.763C58.5066 125.763 58.9375 125.88 59.3068 126.115C59.6785 126.349 59.9673 126.678 60.1733 127.102C60.3816 127.526 60.4858 128.022 60.4858 128.59C60.4858 129.153 60.3816 129.646 60.1733 130.067C59.9673 130.489 59.6785 130.816 59.3068 131.051C58.9375 131.285 58.5066 131.402 58.0142 131.402ZM58.0142 130.649C58.3883 130.649 58.696 130.554 58.9375 130.362C59.179 130.17 59.3577 129.918 59.4737 129.605C59.5897 129.293 59.6477 128.954 59.6477 128.59C59.6477 128.225 59.5897 127.886 59.4737 127.571C59.3577 127.256 59.179 127.001 58.9375 126.807C58.696 126.613 58.3883 126.516 58.0142 126.516C57.6402 126.516 57.3324 126.613 57.0909 126.807C56.8494 127.001 56.6707 127.256 56.5547 127.571C56.4387 127.886 56.3807 128.225 56.3807 128.59C56.3807 128.954 56.4387 129.293 56.5547 129.605C56.6707 129.918 56.8494 130.17 57.0909 130.362C57.3324 130.554 57.6402 130.649 58.0142 130.649ZM66.9498 125.834V126.544H64.123V125.834H66.9498ZM64.9469 124.527H65.785V129.726C65.785 129.963 65.8193 130.14 65.888 130.259C65.959 130.375 66.0489 130.453 66.1578 130.493C66.2691 130.531 66.3863 130.55 66.5094 130.55C66.6017 130.55 66.6775 130.545 66.7367 130.536C66.7959 130.524 66.8432 130.515 66.8787 130.507L67.0492 131.26C66.9924 131.282 66.9131 131.303 66.8113 131.324C66.7095 131.348 66.5804 131.36 66.4242 131.36C66.1874 131.36 65.9554 131.309 65.7282 131.207C65.5033 131.105 65.3162 130.95 65.1671 130.742C65.0203 130.533 64.9469 130.271 64.9469 129.953V124.527ZM68.2104 131.289V125.834H69.0485V131.289H68.2104ZM68.6365 124.925C68.4732 124.925 68.3323 124.869 68.214 124.758C68.098 124.647 68.04 124.513 68.04 124.357C68.04 124.201 68.098 124.067 68.214 123.956C68.3323 123.844 68.4732 123.789 68.6365 123.789C68.7999 123.789 68.9396 123.844 69.0556 123.956C69.1739 124.067 69.2331 124.201 69.2331 124.357C69.2331 124.513 69.1739 124.647 69.0556 124.758C68.9396 124.869 68.7999 124.925 68.6365 124.925ZM72.9556 125.834V126.544H70.1289V125.834H72.9556ZM70.9528 124.527H71.7908V129.726C71.7908 129.963 71.8252 130.14 71.8938 130.259C71.9648 130.375 72.0548 130.453 72.1637 130.493C72.275 130.531 72.3922 130.55 72.5153 130.55C72.6076 130.55 72.6834 130.545 72.7425 130.536C72.8017 130.524 72.8491 130.515 72.8846 130.507L73.055 131.26C72.9982 131.282 72.9189 131.303 72.8171 131.324C72.7153 131.348 72.5863 131.36 72.43 131.36C72.1933 131.36 71.9613 131.309 71.734 131.207C71.5091 131.105 71.3221 130.95 71.1729 130.742C71.0262 130.533 70.9528 130.271 70.9528 129.953V124.527ZM77.6538 129.059V125.834H78.4918V131.289H77.6538V130.365H77.5969C77.4691 130.642 77.2702 130.878 77.0004 131.072C76.7305 131.264 76.3896 131.36 75.9776 131.36C75.6367 131.36 75.3337 131.285 75.0685 131.136C74.8034 130.984 74.5951 130.757 74.4435 130.454C74.292 130.149 74.2163 129.764 74.2163 129.3V125.834H75.0543V129.243C75.0543 129.641 75.1656 129.958 75.3881 130.195C75.613 130.432 75.8995 130.55 76.2475 130.55C76.4558 130.55 76.6677 130.497 76.8832 130.39C77.101 130.284 77.2833 130.12 77.43 129.9C77.5792 129.68 77.6538 129.399 77.6538 129.059ZM80.8649 124.016V131.289H80.0268V124.016H80.8649ZM84.005 131.417C83.6593 131.417 83.3456 131.351 83.0639 131.221C82.7822 131.089 82.5585 130.898 82.3928 130.649C82.227 130.399 82.1442 130.096 82.1442 129.74C82.1442 129.428 82.2057 129.175 82.3288 128.98C82.4519 128.784 82.6165 128.63 82.8224 128.519C83.0284 128.408 83.2557 128.325 83.5043 128.27C83.7552 128.213 84.0073 128.168 84.2607 128.135C84.5921 128.093 84.8608 128.061 85.0668 128.039C85.2751 128.016 85.4266 127.977 85.5213 127.922C85.6184 127.868 85.6669 127.773 85.6669 127.638V127.61C85.6669 127.259 85.571 126.987 85.3793 126.793C85.1899 126.599 84.9022 126.502 84.5163 126.502C84.1162 126.502 83.8026 126.589 83.5753 126.765C83.348 126.94 83.1882 127.127 83.0959 127.326L82.3004 127.042C82.4425 126.71 82.6319 126.452 82.8686 126.267C83.1077 126.08 83.3681 125.95 83.6499 125.877C83.9339 125.801 84.2133 125.763 84.4879 125.763C84.6631 125.763 84.8643 125.784 85.0916 125.827C85.3213 125.867 85.5426 125.951 85.7557 126.079C85.9711 126.207 86.1499 126.4 86.2919 126.658C86.4339 126.916 86.505 127.262 86.505 127.695V131.289H85.6669V130.55H85.6243C85.5675 130.668 85.4728 130.795 85.3402 130.93C85.2076 131.065 85.0313 131.18 84.8111 131.274C84.5909 131.369 84.3222 131.417 84.005 131.417ZM84.1328 130.664C84.4643 130.664 84.7436 130.599 84.9709 130.468C85.2005 130.338 85.3733 130.17 85.4893 129.964C85.6077 129.758 85.6669 129.542 85.6669 129.314V128.547C85.6314 128.59 85.5533 128.629 85.4325 128.664C85.3142 128.698 85.1768 128.727 85.0206 128.753C84.8667 128.777 84.7164 128.798 84.5696 128.817C84.4252 128.834 84.308 128.848 84.218 128.86C84.0002 128.888 83.7966 128.934 83.6072 128.998C83.4202 129.06 83.2687 129.153 83.1527 129.279C83.0391 129.402 82.9822 129.57 82.9822 129.783C82.9822 130.074 83.09 130.294 83.3054 130.444C83.5232 130.59 83.799 130.664 84.1328 130.664ZM88.0346 131.289V125.834H88.8443V126.658H88.9011C89.0005 126.388 89.1805 126.169 89.4409 126.001C89.7013 125.833 89.9949 125.749 90.3216 125.749C90.3831 125.749 90.46 125.75 90.5524 125.752C90.6447 125.755 90.7145 125.758 90.7619 125.763V126.615C90.7335 126.608 90.6684 126.598 90.5666 126.583C90.4672 126.567 90.3618 126.559 90.2505 126.559C89.9854 126.559 89.7486 126.614 89.5403 126.725C89.3343 126.834 89.171 126.986 89.0502 127.18C88.9319 127.372 88.8727 127.591 88.8727 127.837V131.289H88.0346Z" fill="white"/>
<g filter="url(#filter4_di_1509_188)">
<path d="M18.8849 151.289V141.107H21.0376V145.308H25.4077V141.107H27.5554V151.289H25.4077V147.083H21.0376V151.289H18.8849ZM29.3303 151.289V141.107H36.1911V142.882H31.483V145.308H35.8381V147.083H31.483V149.514H36.2109V151.289H29.3303ZM39.742 141.107L42.2029 148.843H42.2974L44.7633 141.107H47.1497L43.6397 151.289H40.8656L37.3507 141.107H39.742ZM48.3752 151.289V141.107H55.236V142.882H50.5279V145.308H54.883V147.083H50.5279V149.514H55.2559V151.289H48.3752ZM56.9474 151.289V141.107H60.9645C61.7334 141.107 62.3897 141.244 62.9332 141.52C63.4801 141.791 63.8961 142.177 64.1811 142.678C64.4695 143.175 64.6136 143.76 64.6136 144.433C64.6136 145.109 64.4678 145.691 64.1761 146.178C63.8845 146.662 63.4619 147.033 62.9084 147.292C62.3582 147.55 61.692 147.679 60.9098 147.679H58.2202V145.949H60.5618C60.9728 145.949 61.3142 145.893 61.5859 145.78C61.8577 145.667 62.0599 145.498 62.1925 145.273C62.3284 145.048 62.3963 144.768 62.3963 144.433C62.3963 144.095 62.3284 143.81 62.1925 143.578C62.0599 143.346 61.8561 143.17 61.581 143.051C61.3092 142.928 60.9661 142.867 60.5518 142.867H59.1001V151.289H56.9474ZM62.446 146.655L64.9766 151.289H62.6001L60.1243 146.655H62.446ZM65.7472 142.882V141.107H74.1094V142.882H70.9922V151.289H68.8643V142.882H65.7472ZM84.3782 146.198C84.3782 147.308 84.1677 148.253 83.7468 149.032C83.3292 149.81 82.7591 150.405 82.0366 150.816C81.3174 151.224 80.5086 151.428 79.6104 151.428C78.7056 151.428 77.8936 151.222 77.1744 150.811C76.4551 150.4 75.8867 149.806 75.4691 149.027C75.0515 148.248 74.8427 147.305 74.8427 146.198C74.8427 145.087 75.0515 144.143 75.4691 143.364C75.8867 142.585 76.4551 141.992 77.1744 141.584C77.8936 141.173 78.7056 140.968 79.6104 140.968C80.5086 140.968 81.3174 141.173 82.0366 141.584C82.7591 141.992 83.3292 142.585 83.7468 143.364C84.1677 144.143 84.3782 145.087 84.3782 146.198ZM82.1957 146.198C82.1957 145.479 82.088 144.872 81.8725 144.378C81.6604 143.884 81.3604 143.51 80.9727 143.255C80.5849 142.999 80.1308 142.872 79.6104 142.872C79.0901 142.872 78.636 142.999 78.2482 143.255C77.8604 143.51 77.5588 143.884 77.3434 144.378C77.1313 144.872 77.0252 145.479 77.0252 146.198C77.0252 146.917 77.1313 147.524 77.3434 148.017C77.5588 148.511 77.8604 148.886 78.2482 149.141C78.636 149.396 79.0901 149.524 79.6104 149.524C80.1308 149.524 80.5849 149.396 80.9727 149.141C81.3604 148.886 81.6604 148.511 81.8725 148.017C82.088 147.524 82.1957 146.917 82.1957 146.198ZM94.4892 141.107V151.289H92.6298L88.2001 144.88H88.1255V151.289H85.9728V141.107H87.862L92.2569 147.51H92.3464V141.107H94.4892ZM101.263 151.289H98.9561L102.471 141.107H105.245L108.755 151.289H106.448L103.898 143.434H103.818L101.263 151.289ZM101.119 147.287H106.568V148.967H101.119V147.287ZM109.981 151.289V141.107H112.133V149.514H116.498V151.289H109.981ZM118.67 141.107L121.131 148.843H121.225L123.691 141.107H126.077L122.567 151.289H119.793L116.278 141.107H118.67ZM127.303 151.289V141.107H134.164V142.882H129.456V145.308H133.811V147.083H129.456V149.514H134.184V151.289H127.303ZM141.399 144.035C141.359 143.634 141.188 143.323 140.887 143.1C140.585 142.878 140.176 142.767 139.659 142.767C139.307 142.767 139.011 142.817 138.769 142.917C138.527 143.013 138.341 143.147 138.212 143.319C138.086 143.492 138.023 143.687 138.023 143.906C138.016 144.088 138.054 144.247 138.137 144.383C138.223 144.519 138.341 144.637 138.49 144.736C138.639 144.832 138.812 144.917 139.007 144.99C139.203 145.059 139.412 145.119 139.634 145.169L140.548 145.387C140.993 145.487 141.4 145.619 141.771 145.785C142.143 145.951 142.464 146.155 142.736 146.397C143.008 146.639 143.218 146.924 143.367 147.252C143.52 147.58 143.598 147.956 143.601 148.38C143.598 149.003 143.439 149.544 143.124 150.001C142.812 150.455 142.361 150.808 141.771 151.06C141.185 151.309 140.477 151.433 139.649 151.433C138.827 151.433 138.111 151.307 137.501 151.055C136.894 150.803 136.42 150.43 136.079 149.936C135.741 149.439 135.564 148.824 135.547 148.092H137.63C137.653 148.433 137.751 148.718 137.923 148.947C138.099 149.172 138.333 149.343 138.624 149.459C138.919 149.572 139.253 149.628 139.624 149.628C139.988 149.628 140.305 149.575 140.573 149.469C140.845 149.363 141.056 149.216 141.205 149.027C141.354 148.838 141.428 148.621 141.428 148.375C141.428 148.147 141.36 147.954 141.225 147.799C141.092 147.643 140.896 147.51 140.638 147.401C140.383 147.292 140.07 147.192 139.698 147.103L138.59 146.824C137.731 146.615 137.053 146.289 136.556 145.845C136.059 145.401 135.812 144.802 135.816 144.05C135.812 143.434 135.976 142.895 136.308 142.434C136.642 141.974 137.102 141.614 137.685 141.355C138.268 141.097 138.931 140.968 139.673 140.968C140.429 140.968 141.089 141.097 141.652 141.355C142.219 141.614 142.66 141.974 142.975 142.434C143.289 142.895 143.452 143.429 143.462 144.035H141.399ZM148.289 141.107H150.944L153.748 147.948H153.867L156.671 141.107H159.326V151.289H157.238V144.662H157.154L154.519 151.239H153.097L150.462 144.637H150.377V151.289H148.289V141.107ZM161.1 151.289V141.107H167.961V142.882H163.252V145.308H167.608V147.083H163.252V149.514H167.98V151.289H161.1ZM178.188 141.107V151.289H176.329L171.899 144.88H171.825V151.289H169.672V141.107H171.561L175.956 147.51H176.046V141.107H178.188ZM183.576 151.289H179.967V141.107H183.606C184.63 141.107 185.512 141.311 186.251 141.718C186.99 142.123 187.559 142.704 187.956 143.463C188.357 144.222 188.558 145.131 188.558 146.188C188.558 147.248 188.357 148.16 187.956 148.922C187.559 149.685 186.987 150.27 186.241 150.677C185.499 151.085 184.61 151.289 183.576 151.289ZM182.12 149.444H183.487C184.123 149.444 184.658 149.332 185.093 149.106C185.53 148.877 185.858 148.524 186.077 148.047C186.299 147.567 186.41 146.947 186.41 146.188C186.41 145.435 186.299 144.821 186.077 144.343C185.858 143.866 185.532 143.515 185.098 143.289C184.663 143.064 184.128 142.951 183.492 142.951H182.12V149.444ZM199.509 146.198C199.509 147.308 199.299 148.253 198.878 149.032C198.46 149.81 197.89 150.405 197.167 150.816C196.448 151.224 195.64 151.428 194.741 151.428C193.836 151.428 193.024 151.222 192.305 150.811C191.586 150.4 191.018 149.806 190.6 149.027C190.182 148.248 189.974 147.305 189.974 146.198C189.974 145.087 190.182 144.143 190.6 143.364C191.018 142.585 191.586 141.992 192.305 141.584C193.024 141.173 193.836 140.968 194.741 140.968C195.64 140.968 196.448 141.173 197.167 141.584C197.89 141.992 198.46 142.585 198.878 143.364C199.299 144.143 199.509 145.087 199.509 146.198ZM197.327 146.198C197.327 145.479 197.219 144.872 197.003 144.378C196.791 143.884 196.491 143.51 196.104 143.255C195.716 142.999 195.262 142.872 194.741 142.872C194.221 142.872 193.767 142.999 193.379 143.255C192.991 143.51 192.69 143.884 192.474 144.378C192.262 144.872 192.156 145.479 192.156 146.198C192.156 146.917 192.262 147.524 192.474 148.017C192.69 148.511 192.991 148.886 193.379 149.141C193.767 149.396 194.221 149.524 194.741 149.524C195.262 149.524 195.716 149.396 196.104 149.141C196.491 148.886 196.791 148.511 197.003 148.017C197.219 147.524 197.327 146.917 197.327 146.198ZM209.62 141.107V151.289H207.761L203.331 144.88H203.256V151.289H201.104V141.107H202.993L207.388 147.51H207.477V141.107H209.62ZM220.382 144.672H218.205C218.165 144.39 218.084 144.14 217.961 143.921C217.838 143.699 217.681 143.51 217.489 143.354C217.297 143.198 217.075 143.079 216.823 142.996C216.574 142.913 216.304 142.872 216.012 142.872C215.485 142.872 215.026 143.003 214.635 143.265C214.244 143.523 213.941 143.901 213.725 144.398C213.51 144.892 213.402 145.492 213.402 146.198C213.402 146.924 213.51 147.533 213.725 148.027C213.944 148.521 214.249 148.894 214.64 149.146C215.031 149.398 215.484 149.524 215.997 149.524C216.286 149.524 216.552 149.486 216.798 149.409C217.046 149.333 217.267 149.222 217.459 149.076C217.651 148.927 217.81 148.747 217.936 148.534C218.066 148.322 218.155 148.08 218.205 147.809L220.382 147.819C220.326 148.286 220.185 148.737 219.96 149.171C219.738 149.602 219.438 149.988 219.06 150.329C218.685 150.667 218.238 150.936 217.718 151.135C217.2 151.33 216.615 151.428 215.963 151.428C215.054 151.428 214.242 151.222 213.526 150.811C212.814 150.4 212.25 149.806 211.836 149.027C211.425 148.248 211.22 147.305 211.22 146.198C211.22 145.087 211.428 144.143 211.846 143.364C212.264 142.585 212.83 141.992 213.546 141.584C214.262 141.173 215.068 140.968 215.963 140.968C216.552 140.968 217.099 141.051 217.603 141.216C218.11 141.382 218.559 141.624 218.95 141.942C219.342 142.257 219.66 142.643 219.905 143.1C220.154 143.558 220.313 144.082 220.382 144.672ZM223.49 151.289H221.183L224.698 141.107H227.472L230.982 151.289H228.675L226.124 143.434H226.045L223.49 151.289ZM223.345 147.287H228.794V148.967H223.345V147.287Z" fill="white"/>
</g>
<path d="M18.8807 178.289V171.016H23.2699V171.797H19.7614V174.255H23.0426V175.036H19.7614V177.507H23.3267V178.289H18.8807ZM25.3686 172.834L26.6754 175.064L27.9822 172.834H28.9482L27.1868 175.561L28.9482 178.289H27.9822L26.6754 176.172L25.3686 178.289H24.4027L26.1357 175.561L24.4027 172.834H25.3686ZM30.144 180.334V172.834H30.9537V173.701H31.0531C31.1146 173.606 31.1999 173.485 31.3088 173.338C31.42 173.189 31.5787 173.057 31.7846 172.941C31.993 172.822 32.2747 172.763 32.6298 172.763C33.0891 172.763 33.4939 172.878 33.8443 173.108C34.1947 173.337 34.4681 173.663 34.6646 174.084C34.8611 174.506 34.9593 175.003 34.9593 175.576C34.9593 176.153 34.8611 176.654 34.6646 177.078C34.4681 177.499 34.1958 177.826 33.8478 178.058C33.4998 178.288 33.0985 178.402 32.644 178.402C32.2936 178.402 32.0131 178.344 31.8024 178.228C31.5917 178.11 31.4295 177.976 31.3159 177.827C31.2022 177.676 31.1146 177.55 31.0531 177.451H30.9821V180.334H30.144ZM30.9679 175.561C30.9679 175.973 31.0282 176.337 31.149 176.652C31.2697 176.964 31.4461 177.209 31.6781 177.387C31.9101 177.562 32.1942 177.649 32.5304 177.649C32.8807 177.649 33.1731 177.557 33.4075 177.373C33.6442 177.185 33.8218 176.935 33.9402 176.62C34.0609 176.302 34.1213 175.95 34.1213 175.561C34.1213 175.178 34.0621 174.832 33.9437 174.524C33.8277 174.214 33.6513 173.969 33.4146 173.789C33.1802 173.607 32.8855 173.516 32.5304 173.516C32.1895 173.516 31.903 173.602 31.671 173.775C31.439 173.946 31.2638 174.185 31.1454 174.493C31.027 174.798 30.9679 175.154 30.9679 175.561ZM36.2377 178.289V172.834H37.0758V178.289H36.2377ZM36.6639 171.925C36.5005 171.925 36.3597 171.869 36.2413 171.758C36.1253 171.647 36.0673 171.513 36.0673 171.357C36.0673 171.201 36.1253 171.067 36.2413 170.956C36.3597 170.844 36.5005 170.789 36.6639 170.789C36.8272 170.789 36.9669 170.844 37.0829 170.956C37.2013 171.067 37.2605 171.201 37.2605 171.357C37.2605 171.513 37.2013 171.647 37.0829 171.758C36.9669 171.869 36.8272 171.925 36.6639 171.925ZM38.6108 178.289V172.834H39.4205V173.658H39.4773C39.5767 173.388 39.7566 173.169 40.017 173.001C40.2775 172.833 40.571 172.749 40.8977 172.749C40.9593 172.749 41.0362 172.75 41.1286 172.752C41.2209 172.755 41.2907 172.758 41.3381 172.763V173.615C41.3097 173.608 41.2446 173.598 41.1428 173.583C41.0433 173.567 40.938 173.559 40.8267 173.559C40.5616 173.559 40.3248 173.614 40.1165 173.725C39.9105 173.834 39.7472 173.986 39.6264 174.18C39.508 174.372 39.4489 174.591 39.4489 174.837V178.289H38.6108ZM43.9366 178.417C43.591 178.417 43.2773 178.351 42.9956 178.221C42.7138 178.089 42.4901 177.898 42.3244 177.649C42.1587 177.399 42.0758 177.096 42.0758 176.74C42.0758 176.428 42.1374 176.175 42.2605 175.98C42.3836 175.784 42.5481 175.63 42.7541 175.519C42.96 175.408 43.1873 175.325 43.4359 175.27C43.6868 175.213 43.939 175.168 44.1923 175.135C44.5237 175.093 44.7924 175.061 44.9984 175.039C45.2067 175.016 45.3583 174.977 45.4529 174.922C45.55 174.868 45.5985 174.773 45.5985 174.638V174.61C45.5985 174.259 45.5027 173.987 45.3109 173.793C45.1215 173.599 44.8339 173.502 44.448 173.502C44.0479 173.502 43.7342 173.589 43.5069 173.765C43.2797 173.94 43.1199 174.127 43.0275 174.326L42.2321 174.042C42.3741 173.71 42.5635 173.452 42.8002 173.267C43.0394 173.08 43.2998 172.95 43.5815 172.877C43.8656 172.801 44.1449 172.763 44.4196 172.763C44.5948 172.763 44.796 172.784 45.0233 172.827C45.2529 172.867 45.4743 172.951 45.6873 173.079C45.9028 173.207 46.0815 173.4 46.2235 173.658C46.3656 173.916 46.4366 174.262 46.4366 174.695V178.289H45.5985V177.55H45.5559C45.4991 177.668 45.4044 177.795 45.2718 177.93C45.1393 178.065 44.9629 178.18 44.7427 178.274C44.5225 178.369 44.2538 178.417 43.9366 178.417ZM44.0645 177.664C44.3959 177.664 44.6752 177.599 44.9025 177.468C45.1322 177.338 45.305 177.17 45.421 176.964C45.5394 176.758 45.5985 176.542 45.5985 176.314V175.547C45.563 175.59 45.4849 175.629 45.3642 175.664C45.2458 175.698 45.1085 175.727 44.9522 175.753C44.7984 175.777 44.648 175.798 44.5012 175.817C44.3568 175.834 44.2396 175.848 44.1497 175.86C43.9319 175.888 43.7283 175.934 43.5389 175.998C43.3519 176.06 43.2003 176.153 43.0843 176.279C42.9707 176.402 42.9139 176.57 42.9139 176.783C42.9139 177.074 43.0216 177.294 43.237 177.444C43.4548 177.59 43.7306 177.664 44.0645 177.664ZM50.1822 178.402C49.6708 178.402 49.2305 178.282 48.8612 178.04C48.4918 177.799 48.2077 177.466 48.0089 177.042C47.81 176.618 47.7106 176.134 47.7106 175.59C47.7106 175.036 47.8124 174.547 48.016 174.123C48.2219 173.697 48.5084 173.364 48.8754 173.125C49.2447 172.884 49.6755 172.763 50.168 172.763C50.5515 172.763 50.8971 172.834 51.2049 172.976C51.5127 173.118 51.7648 173.317 51.9613 173.573C52.1578 173.828 52.2797 174.127 52.3271 174.468H51.489C51.4251 174.219 51.283 173.999 51.0629 173.807C50.8451 173.613 50.5515 173.516 50.1822 173.516C49.8555 173.516 49.569 173.601 49.3228 173.772C49.079 173.94 48.8884 174.178 48.7511 174.485C48.6161 174.791 48.5487 175.149 48.5487 175.561C48.5487 175.983 48.6149 176.35 48.7475 176.662C48.8825 176.975 49.0719 177.217 49.3157 177.39C49.5619 177.563 49.8507 177.649 50.1822 177.649C50.4 177.649 50.5977 177.612 50.7752 177.536C50.9528 177.46 51.1031 177.351 51.2262 177.209C51.3493 177.067 51.4369 176.897 51.489 176.698H52.3271C52.2797 177.02 52.1625 177.31 51.9755 177.568C51.7908 177.823 51.5458 178.027 51.2404 178.179C50.9374 178.328 50.5846 178.402 50.1822 178.402ZM49.7844 178.26H50.4805L50.4237 178.544C50.6083 178.573 50.7776 178.65 50.9315 178.775C51.0853 178.903 51.1623 179.105 51.1623 179.382C51.1623 179.688 51.0356 179.936 50.7823 180.128C50.5314 180.322 50.1609 180.419 49.6708 180.419L49.6424 179.865C49.8626 179.865 50.0449 179.83 50.1893 179.759C50.3361 179.69 50.4094 179.574 50.4094 179.411C50.4094 179.248 50.3491 179.136 50.2283 179.077C50.1076 179.018 49.9123 178.978 49.6424 178.956L49.7844 178.26ZM55.1573 178.417C54.8117 178.417 54.498 178.351 54.2163 178.221C53.9345 178.089 53.7108 177.898 53.5451 177.649C53.3794 177.399 53.2965 177.096 53.2965 176.74C53.2965 176.428 53.3581 176.175 53.4812 175.98C53.6043 175.784 53.7688 175.63 53.9748 175.519C54.1808 175.408 54.408 175.325 54.6566 175.27C54.9076 175.213 55.1597 175.168 55.413 175.135C55.7444 175.093 56.0131 175.061 56.2191 175.039C56.4274 175.016 56.579 174.977 56.6737 174.922C56.7707 174.868 56.8192 174.773 56.8192 174.638V174.61C56.8192 174.259 56.7234 173.987 56.5316 173.793C56.3422 173.599 56.0546 173.502 55.6687 173.502C55.2686 173.502 54.9549 173.589 54.7276 173.765C54.5004 173.94 54.3406 174.127 54.2482 174.326L53.4528 174.042C53.5948 173.71 53.7842 173.452 54.021 173.267C54.2601 173.08 54.5205 172.95 54.8022 172.877C55.0863 172.801 55.3656 172.763 55.6403 172.763C55.8155 172.763 56.0167 172.784 56.244 172.827C56.4736 172.867 56.695 172.951 56.908 173.079C57.1235 173.207 57.3022 173.4 57.4442 173.658C57.5863 173.916 57.6573 174.262 57.6573 174.695V178.289H56.8192V177.55H56.7766C56.7198 177.668 56.6251 177.795 56.4925 177.93C56.36 178.065 56.1836 178.18 55.9634 178.274C55.7433 178.369 55.4746 178.417 55.1573 178.417ZM55.2852 177.664C55.6166 177.664 55.896 177.599 56.1232 177.468C56.3529 177.338 56.5257 177.17 56.6417 176.964C56.7601 176.758 56.8192 176.542 56.8192 176.314V175.547C56.7837 175.59 56.7056 175.629 56.5849 175.664C56.4665 175.698 56.3292 175.727 56.1729 175.753C56.0191 175.777 55.8687 175.798 55.7219 175.817C55.5775 175.834 55.4603 175.848 55.3704 175.86C55.1526 175.888 54.949 175.934 54.7596 175.998C54.5726 176.06 54.421 176.153 54.305 176.279C54.1914 176.402 54.1346 176.57 54.1346 176.783C54.1346 177.074 54.2423 177.294 54.4577 177.444C54.6755 177.59 54.9513 177.664 55.2852 177.664ZM54.6033 172.181L53.9499 172.152C53.9499 171.79 54.0529 171.494 54.2589 171.265C54.4672 171.033 54.7241 170.917 55.0295 170.917C55.1644 170.917 55.284 170.94 55.3881 170.988C55.4923 171.033 55.5917 171.085 55.6864 171.144C55.7811 171.203 55.8782 171.256 55.9776 171.304C56.0794 171.349 56.1942 171.371 56.3221 171.371C56.457 171.371 56.5707 171.319 56.663 171.215C56.7577 171.108 56.805 170.98 56.805 170.831L57.4442 170.888C57.4442 171.257 57.3401 171.551 57.1317 171.769C56.9258 171.987 56.6701 172.096 56.3647 172.096C56.2013 172.096 56.0664 172.073 55.9599 172.028C55.8533 171.981 55.7586 171.927 55.6758 171.868C55.5929 171.809 55.5053 171.757 55.413 171.712C55.3207 171.665 55.207 171.641 55.0721 171.641C54.9371 171.641 54.8247 171.694 54.7347 171.801C54.6471 171.905 54.6033 172.032 54.6033 172.181ZM61.4029 178.402C60.9105 178.402 60.4784 178.285 60.1067 178.051C59.7374 177.816 59.4486 177.489 59.2402 177.067C59.0343 176.646 58.9313 176.153 58.9313 175.59C58.9313 175.022 59.0343 174.526 59.2402 174.102C59.4486 173.678 59.7374 173.349 60.1067 173.115C60.4784 172.88 60.9105 172.763 61.4029 172.763C61.8953 172.763 62.3262 172.88 62.6955 173.115C63.0672 173.349 63.356 173.678 63.562 174.102C63.7703 174.526 63.8745 175.022 63.8745 175.59C63.8745 176.153 63.7703 176.646 63.562 177.067C63.356 177.489 63.0672 177.816 62.6955 178.051C62.3262 178.285 61.8953 178.402 61.4029 178.402ZM61.4029 177.649C61.7769 177.649 62.0847 177.554 62.3262 177.362C62.5676 177.17 62.7464 176.918 62.8624 176.605C62.9784 176.293 63.0364 175.954 63.0364 175.59C63.0364 175.225 62.9784 174.886 62.8624 174.571C62.7464 174.256 62.5676 174.001 62.3262 173.807C62.0847 173.613 61.7769 173.516 61.4029 173.516C61.0288 173.516 60.7211 173.613 60.4796 173.807C60.2381 174.001 60.0594 174.256 59.9434 174.571C59.8274 174.886 59.7694 175.225 59.7694 175.59C59.7694 175.954 59.8274 176.293 59.9434 176.605C60.0594 176.918 60.2381 177.17 60.4796 177.362C60.7211 177.554 61.0288 177.649 61.4029 177.649Z" fill="white"/>
<g filter="url(#filter5_di_1509_188)">
<path d="M22.8175 198.512C21.9624 198.509 21.2266 198.299 20.6101 197.881C19.9969 197.463 19.5246 196.859 19.1932 196.066C18.8651 195.274 18.7027 194.321 18.706 193.208C18.706 192.097 18.87 191.151 19.1982 190.369C19.5296 189.587 20.0019 188.992 20.6151 188.584C21.2315 188.173 21.9657 187.968 22.8175 187.968C23.6693 187.968 24.4018 188.173 25.0149 188.584C25.6314 188.995 26.1054 189.592 26.4368 190.374C26.7682 191.153 26.9323 192.097 26.929 193.208C26.929 194.325 26.7633 195.279 26.4318 196.071C26.1037 196.864 25.633 197.468 25.0199 197.886C24.4067 198.304 23.6726 198.512 22.8175 198.512ZM22.8175 196.728C23.4008 196.728 23.8665 196.434 24.2145 195.848C24.5625 195.261 24.7348 194.381 24.7315 193.208C24.7315 192.435 24.652 191.792 24.4929 191.279C24.3371 190.765 24.1151 190.379 23.8267 190.12C23.5417 189.862 23.2053 189.733 22.8175 189.733C22.2375 189.733 21.7734 190.023 21.4254 190.603C21.0774 191.183 20.9018 192.051 20.8984 193.208C20.8984 193.99 20.9763 194.643 21.1321 195.167C21.2912 195.687 21.5149 196.078 21.8033 196.34C22.0916 196.598 22.4297 196.728 22.8175 196.728ZM28.464 198.289V196.738L32.0882 193.382C32.3965 193.083 32.655 192.815 32.8638 192.576C33.0759 192.338 33.2367 192.104 33.3461 191.875C33.4554 191.643 33.5101 191.393 33.5101 191.125C33.5101 190.826 33.4422 190.569 33.3063 190.354C33.1704 190.135 32.9848 189.968 32.7495 189.852C32.5141 189.733 32.2473 189.673 31.949 189.673C31.6375 189.673 31.3657 189.736 31.1337 189.862C30.9017 189.988 30.7227 190.168 30.5968 190.404C30.4708 190.639 30.4078 190.919 30.4078 191.244H28.3645C28.3645 190.578 28.5153 189.999 28.8169 189.509C29.1185 189.018 29.5411 188.639 30.0847 188.37C30.6283 188.102 31.2547 187.968 31.964 187.968C32.6931 187.968 33.3278 188.097 33.8681 188.355C34.4116 188.611 34.8342 188.965 35.1358 189.419C35.4374 189.873 35.5882 190.394 35.5882 190.98C35.5882 191.365 35.512 191.744 35.3596 192.119C35.2104 192.493 34.9436 192.909 34.5591 193.367C34.1747 193.821 33.6328 194.366 32.9334 195.002L31.4469 196.459V196.529H35.7225V198.289H28.464ZM41.7369 187.63L38.4556 199.82H36.631L39.9123 187.63H41.7369ZM46.5009 198.428C45.7585 198.428 45.0972 198.3 44.5172 198.045C43.9405 197.787 43.4848 197.432 43.15 196.981C42.8186 196.527 42.6479 196.003 42.638 195.41H44.8056C44.8188 195.659 44.9 195.877 45.0492 196.066C45.2016 196.252 45.4038 196.396 45.6557 196.499C45.9076 196.602 46.191 196.653 46.5059 196.653C46.834 196.653 47.124 196.595 47.3759 196.479C47.6278 196.363 47.825 196.202 47.9675 195.997C48.11 195.791 48.1813 195.554 48.1813 195.286C48.1813 195.014 48.1051 194.774 47.9526 194.565C47.8034 194.353 47.588 194.187 47.3063 194.068C47.0279 193.948 46.6964 193.889 46.312 193.889H45.3624V192.308H46.312C46.6368 192.308 46.9235 192.252 47.1721 192.139C47.4239 192.026 47.6195 191.87 47.7587 191.672C47.8979 191.469 47.9675 191.234 47.9675 190.966C47.9675 190.71 47.9062 190.487 47.7836 190.294C47.6642 190.099 47.4952 189.946 47.2765 189.837C47.061 189.728 46.8091 189.673 46.5208 189.673C46.2291 189.673 45.9623 189.726 45.7203 189.832C45.4784 189.935 45.2845 190.082 45.1387 190.274C44.9928 190.467 44.915 190.692 44.905 190.951H42.8418C42.8517 190.364 43.0191 189.847 43.3439 189.399C43.6687 188.952 44.1062 188.602 44.6564 188.35C45.2099 188.095 45.8347 187.968 46.5307 187.968C47.2334 187.968 47.8482 188.095 48.3752 188.35C48.9022 188.606 49.3115 188.95 49.6032 189.385C49.8981 189.815 50.044 190.299 50.0407 190.836C50.044 191.406 49.8667 191.882 49.5087 192.263C49.1541 192.644 48.6917 192.886 48.1216 192.989V193.069C48.8707 193.165 49.4408 193.425 49.8319 193.849C50.2263 194.27 50.4218 194.797 50.4185 195.43C50.4218 196.01 50.2544 196.525 49.9164 196.976C49.5816 197.427 49.1193 197.782 48.5293 198.04C47.9393 198.299 47.2632 198.428 46.5009 198.428ZM55.9581 198.512C55.103 198.509 54.3672 198.299 53.7507 197.881C53.1375 197.463 52.6652 196.859 52.3338 196.066C52.0057 195.274 51.8433 194.321 51.8466 193.208C51.8466 192.097 52.0107 191.151 52.3388 190.369C52.6702 189.587 53.1425 188.992 53.7557 188.584C54.3722 188.173 55.1063 187.968 55.9581 187.968C56.8099 187.968 57.5424 188.173 58.1555 188.584C58.772 188.995 59.246 189.592 59.5774 190.374C59.9089 191.153 60.0729 192.097 60.0696 193.208C60.0696 194.325 59.9039 195.279 59.5724 196.071C59.2443 196.864 58.7737 197.468 58.1605 197.886C57.5473 198.304 56.8132 198.512 55.9581 198.512ZM55.9581 196.728C56.5414 196.728 57.0071 196.434 57.3551 195.848C57.7031 195.261 57.8755 194.381 57.8722 193.208C57.8722 192.435 57.7926 191.792 57.6335 191.279C57.4777 190.765 57.2557 190.379 56.9673 190.12C56.6823 189.862 56.3459 189.733 55.9581 189.733C55.3781 189.733 54.9141 190.023 54.5661 190.603C54.218 191.183 54.0424 192.051 54.0391 193.208C54.0391 193.99 54.117 194.643 54.2727 195.167C54.4318 195.687 54.6555 196.078 54.9439 196.34C55.2322 196.598 55.5703 196.728 55.9581 196.728Z" fill="white"/>
</g>
<path d="M175.623 173.289H174.743C174.691 173.035 174.599 172.813 174.469 172.621C174.341 172.429 174.185 172.268 174 172.138C173.818 172.006 173.616 171.906 173.393 171.84C173.171 171.774 172.939 171.74 172.697 171.74C172.257 171.74 171.858 171.852 171.5 172.074C171.145 172.297 170.862 172.625 170.652 173.058C170.443 173.491 170.339 174.023 170.339 174.652C170.339 175.282 170.443 175.814 170.652 176.247C170.862 176.68 171.145 177.008 171.5 177.23C171.858 177.453 172.257 177.564 172.697 177.564C172.939 177.564 173.171 177.531 173.393 177.465C173.616 177.399 173.818 177.3 174 177.17C174.185 177.038 174.341 176.875 174.469 176.684C174.599 176.489 174.691 176.267 174.743 176.016H175.623C175.557 176.388 175.436 176.72 175.261 177.014C175.086 177.307 174.868 177.557 174.608 177.763C174.347 177.967 174.055 178.122 173.731 178.228C173.409 178.335 173.064 178.388 172.697 178.388C172.077 178.388 171.525 178.237 171.042 177.934C170.559 177.631 170.179 177.2 169.902 176.641C169.625 176.082 169.487 175.419 169.487 174.652C169.487 173.885 169.625 173.222 169.902 172.664C170.179 172.105 170.559 171.674 171.042 171.371C171.525 171.068 172.077 170.917 172.697 170.917C173.064 170.917 173.409 170.97 173.731 171.076C174.055 171.183 174.347 171.339 174.608 171.545C174.868 171.749 175.086 171.997 175.261 172.291C175.436 172.582 175.557 172.915 175.623 173.289ZM177.345 171.016L179.504 177.138H179.589L181.748 171.016H182.671L180.001 178.289H179.092L176.421 171.016H177.345ZM189.315 173.289H188.434C188.382 173.035 188.291 172.813 188.161 172.621C188.033 172.429 187.877 172.268 187.692 172.138C187.51 172.006 187.307 171.906 187.085 171.84C186.862 171.774 186.63 171.74 186.389 171.74C185.948 171.74 185.549 171.852 185.192 172.074C184.837 172.297 184.554 172.625 184.343 173.058C184.135 173.491 184.031 174.023 184.031 174.652C184.031 175.282 184.135 175.814 184.343 176.247C184.554 176.68 184.837 177.008 185.192 177.23C185.549 177.453 185.948 177.564 186.389 177.564C186.63 177.564 186.862 177.531 187.085 177.465C187.307 177.399 187.51 177.3 187.692 177.17C187.877 177.038 188.033 176.875 188.161 176.684C188.291 176.489 188.382 176.267 188.434 176.016H189.315C189.248 176.388 189.128 176.72 188.953 177.014C188.777 177.307 188.56 177.557 188.299 177.763C188.039 177.967 187.746 178.122 187.422 178.228C187.1 178.335 186.756 178.388 186.389 178.388C185.768 178.388 185.217 178.237 184.734 177.934C184.251 177.631 183.871 177.2 183.594 176.641C183.317 176.082 183.178 175.419 183.178 174.652C183.178 173.885 183.317 173.222 183.594 172.664C183.871 172.105 184.251 171.674 184.734 171.371C185.217 171.068 185.768 170.917 186.389 170.917C186.756 170.917 187.1 170.97 187.422 171.076C187.746 171.183 188.039 171.339 188.299 171.545C188.56 171.749 188.777 171.997 188.953 172.291C189.128 172.582 189.248 172.915 189.315 173.289Z" fill="white"/>
<path d="M169.716 198.289V196.738L173.34 193.382C173.648 193.083 173.907 192.815 174.116 192.576C174.328 192.338 174.488 192.104 174.598 191.875C174.707 191.643 174.762 191.393 174.762 191.125C174.762 190.826 174.694 190.569 174.558 190.354C174.422 190.135 174.236 189.968 174.001 189.852C173.766 189.733 173.499 189.673 173.201 189.673C172.889 189.673 172.617 189.736 172.385 189.862C172.153 189.988 171.974 190.168 171.848 190.404C171.723 190.639 171.66 190.919 171.66 191.244H169.616C169.616 190.578 169.767 189.999 170.069 189.509C170.37 189.018 170.793 188.639 171.336 188.37C171.88 188.102 172.506 187.968 173.216 187.968C173.945 187.968 174.58 188.097 175.12 188.355C175.663 188.611 176.086 188.965 176.388 189.419C176.689 189.873 176.84 190.394 176.84 190.98C176.84 191.365 176.764 191.744 176.611 192.119C176.462 192.493 176.195 192.909 175.811 193.367C175.426 193.821 174.884 194.366 174.185 195.002L172.699 196.459V196.529H176.974V198.289H169.716ZM182.298 198.428C181.555 198.428 180.894 198.3 180.314 198.045C179.737 197.787 179.281 197.432 178.947 196.981C178.615 196.527 178.445 196.003 178.435 195.41H180.602C180.615 195.659 180.697 195.877 180.846 196.066C180.998 196.252 181.2 196.396 181.452 196.499C181.704 196.602 181.988 196.653 182.302 196.653C182.631 196.653 182.921 196.595 183.173 196.479C183.424 196.363 183.622 196.202 183.764 195.997C183.907 195.791 183.978 195.554 183.978 195.286C183.978 195.014 183.902 194.774 183.749 194.565C183.6 194.353 183.385 194.187 183.103 194.068C182.825 193.948 182.493 193.889 182.109 193.889H181.159V192.308H182.109C182.433 192.308 182.72 192.252 182.969 192.139C183.221 192.026 183.416 191.87 183.555 191.672C183.695 191.469 183.764 191.234 183.764 190.966C183.764 190.71 183.703 190.487 183.58 190.294C183.461 190.099 183.292 189.946 183.073 189.837C182.858 189.728 182.606 189.673 182.317 189.673C182.026 189.673 181.759 189.726 181.517 189.832C181.275 189.935 181.081 190.082 180.935 190.274C180.789 190.467 180.712 190.692 180.702 190.951H178.638C178.648 190.364 178.816 189.847 179.141 189.399C179.465 188.952 179.903 188.602 180.453 188.35C181.007 188.095 181.631 187.968 182.327 187.968C183.03 187.968 183.645 188.095 184.172 188.35C184.699 188.606 185.108 188.95 185.4 189.385C185.695 189.815 185.841 190.299 185.837 190.836C185.841 191.406 185.663 191.882 185.305 192.263C184.951 192.644 184.488 192.886 183.918 192.989V193.069C184.667 193.165 185.237 193.425 185.628 193.849C186.023 194.27 186.218 194.797 186.215 195.43C186.218 196.01 186.051 196.525 185.713 196.976C185.378 197.427 184.916 197.782 184.326 198.04C183.736 198.299 183.06 198.428 182.298 198.428ZM191.755 198.512C190.9 198.509 190.164 198.299 189.547 197.881C188.934 197.463 188.462 196.859 188.13 196.066C187.802 195.274 187.64 194.321 187.643 193.208C187.643 192.097 187.807 191.151 188.135 190.369C188.467 189.587 188.939 188.992 189.552 188.584C190.169 188.173 190.903 187.968 191.755 187.968C192.607 187.968 193.339 188.173 193.952 188.584C194.569 188.995 195.043 189.592 195.374 190.374C195.705 191.153 195.87 192.097 195.866 193.208C195.866 194.325 195.701 195.279 195.369 196.071C195.041 196.864 194.57 197.468 193.957 197.886C193.344 198.304 192.61 198.512 191.755 198.512ZM191.755 196.728C192.338 196.728 192.804 196.434 193.152 195.848C193.5 195.261 193.672 194.381 193.669 193.208C193.669 192.435 193.589 191.792 193.43 191.279C193.274 190.765 193.052 190.379 192.764 190.12C192.479 189.862 192.143 189.733 191.755 189.733C191.175 189.733 190.711 190.023 190.363 190.603C190.015 191.183 189.839 192.051 189.836 193.208C189.836 193.99 189.914 194.643 190.069 195.167C190.228 195.687 190.452 196.078 190.741 196.34C191.029 196.598 191.367 196.728 191.755 196.728Z" fill="white"/>
<g opacity="0.7">
<rect x="301.23" y="171.059" width="36.3209" height="27.4591" rx="4.20321" fill="white" fill-opacity="0.26" stroke="white" stroke-width="0.898396"/>
<path d="M301.362 179.333H311.248C312.533 179.333 313.575 180.375 313.575 181.659V186.166M313.575 198.408V193M313.575 193V186.166M313.575 193H301.362M313.575 186.166H301.362" stroke="white" stroke-width="0.898396"/>
<path d="M337.418 179.333H325.787M325.787 179.333V186.166M325.787 179.333V171.191M325.787 198.408V193M325.787 193V186.166M325.787 193H337.418M325.787 186.166H337.418" stroke="white" stroke-width="0.898396"/>
</g>
<path fill-rule="evenodd" clip-rule="evenodd" d="M311 14H354V43H311V14Z" fill="white"/>
<path fill-rule="evenodd" clip-rule="evenodd" d="M332.5 34.7878C333.796 33.9905 334.831 33.0193 335.537 31.9365C336.244 30.8537 336.608 29.6832 336.605 28.5001C336.608 27.317 336.244 26.1465 335.538 25.0637C334.831 23.9809 333.796 23.0097 332.5 22.2124C330.284 20.8481 327.344 20.0167 324.118 20.0167C317.223 20.0167 311.632 23.8148 311.632 28.5001C311.632 33.1852 317.223 36.9835 324.118 36.9835C327.344 36.9835 330.284 36.1521 332.5 34.7878Z" fill="#3A9BD9"/>
<path fill-rule="evenodd" clip-rule="evenodd" d="M340.882 20.0167C337.656 20.0167 334.716 20.8481 332.5 22.2124C332.048 22.4908 331.627 22.791 331.239 23.1106H333.76C334.106 23.3958 334.424 23.6959 334.712 24.0089H330.288C330.021 24.2984 329.781 24.5983 329.568 24.9072H335.431C335.633 25.1996 335.81 25.4995 335.961 25.8054H329.039C328.894 26.1001 328.773 26.3999 328.677 26.7036H336.324C336.511 27.2941 336.605 27.8963 336.605 28.5001C336.605 29.4419 336.378 30.3481 335.961 31.1947H329.039C329.19 31.5007 329.366 31.8006 329.568 32.093H335.431C335.218 32.4019 334.978 32.7019 334.712 32.9913H330.288C330.576 33.3043 330.894 33.6044 331.239 33.8896H333.76C333.373 34.2093 332.952 34.5096 332.5 34.788C334.716 36.1523 337.656 36.9836 340.882 36.9836C347.777 36.9836 353.368 33.1854 353.368 28.5003C353.368 23.8148 347.777 20.0167 340.882 20.0167Z" fill="#CC2131"/>
<path fill-rule="evenodd" clip-rule="evenodd" d="M351.705 33.2291C351.705 33.0777 351.886 32.955 352.109 32.955C352.331 32.955 352.512 33.0777 352.512 33.2291C352.512 33.3801 352.331 33.5029 352.109 33.5029C352.001 33.5027 351.898 33.4737 351.823 33.4223C351.747 33.371 351.705 33.3015 351.705 33.2291V33.2291ZM352.108 33.437C352.278 33.437 352.415 33.3442 352.415 33.2289C352.415 33.1137 352.278 33.0206 352.108 33.0206C351.939 33.0206 351.802 33.1137 351.802 33.2289C351.802 33.3442 351.939 33.437 352.108 33.437ZM352.054 33.3491H351.971V33.1081H352.121C352.152 33.1081 352.184 33.1087 352.211 33.1205C352.225 33.1272 352.237 33.1363 352.245 33.1468C352.253 33.1572 352.257 33.1689 352.257 33.1806C352.257 33.2077 352.233 33.2333 352.195 33.2429L352.261 33.349H352.169L352.115 33.2537H352.054V33.3491V33.2128H352.1C352.116 33.2128 352.135 33.2134 352.15 33.2079C352.157 33.2048 352.162 33.2006 352.166 33.1958C352.169 33.191 352.171 33.1856 352.171 33.1802C352.171 33.1753 352.169 33.1706 352.165 33.1664C352.162 33.1621 352.157 33.1585 352.151 33.1558C352.137 33.1499 352.114 33.1514 352.098 33.1514H352.054V33.3491H352.054Z" fill="#CC2131"/>
<path fill-rule="evenodd" clip-rule="evenodd" d="M349.065 30.3387C349.065 30.1874 349.245 30.0646 349.468 30.0646C349.69 30.0646 349.871 30.1874 349.871 30.3387C349.871 30.4901 349.69 30.6126 349.468 30.6126C349.245 30.6126 349.065 30.49 349.065 30.3387ZM349.468 30.5467C349.637 30.5467 349.774 30.4535 349.774 30.3386C349.774 30.2234 349.637 30.1302 349.468 30.1302C349.298 30.1302 349.161 30.2234 349.161 30.3386C349.161 30.4535 349.298 30.5467 349.468 30.5467ZM349.413 30.4588H349.33V30.2181H349.48C349.511 30.2181 349.543 30.2184 349.57 30.2304C349.585 30.2371 349.596 30.2461 349.604 30.2566C349.612 30.267 349.616 30.2786 349.616 30.2903C349.616 30.3177 349.593 30.343 349.554 30.3526L349.62 30.4587H349.528L349.474 30.3634H349.413V30.4588V30.3225H349.459C349.476 30.3225 349.495 30.3234 349.509 30.3178C349.516 30.3147 349.521 30.3106 349.525 30.3057C349.529 30.3009 349.53 30.2956 349.53 30.2902C349.53 30.2853 349.528 30.2805 349.525 30.2762C349.521 30.2719 349.516 30.2682 349.51 30.2655C349.496 30.2599 349.473 30.2611 349.458 30.2611H349.414V30.4588H349.413ZM322.558 30.6126H321.004L321.928 27.3063L319.802 30.6126H318.385L318.126 27.3253L317.199 30.6126H315.789L316.994 26.3117H319.419L319.547 28.9743L321.257 26.3117H323.784L322.558 30.6126V30.6126ZM339.925 30.5697C339.5 30.649 339.168 30.6831 338.809 30.6831C338.014 30.6831 337.579 30.4122 337.579 29.9151C337.579 29.8167 337.596 29.712 337.625 29.6012L337.72 29.2593L337.793 28.9824L338.513 26.3115H340.058L339.834 27.1148H340.627L340.414 27.9651H339.618L339.208 29.4245C339.193 29.4721 339.184 29.5206 339.182 29.5694C339.182 29.75 339.343 29.8286 339.712 29.8286C339.889 29.8286 340.026 29.8177 340.131 29.7959L339.925 30.5697ZM344.464 27.1435C344.334 27.1086 344.303 27.1086 344.288 27.1057C344.206 27.0934 344.162 27.0862 344.154 27.0853C344.103 27.0792 344.05 27.0763 343.998 27.0766C343.488 27.0766 343.12 27.2309 342.644 27.6445L342.781 27.1145H341.374L340.427 30.6124H341.982C342.538 28.4732 342.777 28.0986 343.523 28.0986C343.579 28.0986 343.644 28.1016 343.719 28.1074L343.901 28.1326L344.464 27.1435V27.1435ZM333.765 28.2198C333.765 28.6617 334.132 28.9661 334.962 29.1947C335.599 29.3705 335.697 29.4219 335.697 29.5808C335.697 29.7985 335.417 29.8967 334.795 29.8967C334.326 29.8967 333.89 29.8539 333.386 29.7583L333.17 30.5652L333.24 30.5731L333.528 30.609C333.621 30.6198 333.757 30.6302 333.939 30.6395C334.313 30.6592 334.602 30.6685 334.806 30.6685C336.465 30.6685 337.231 30.2992 337.231 29.5013C337.231 29.0213 336.911 28.7398 336.123 28.5278C335.464 28.3507 335.387 28.3114 335.387 28.1482C335.387 27.9597 335.649 27.8628 336.157 27.8628C336.466 27.8628 336.887 27.8825 337.287 27.9153L337.511 27.1056C337.104 27.068 336.486 27.0371 336.127 27.0371C334.368 27.0373 333.76 27.5747 333.765 28.2198V28.2198ZM327.61 30.6126H326.319L326.349 30.25C325.956 30.537 325.431 30.673 324.719 30.673C323.877 30.673 323.299 30.2834 323.299 29.7177C323.299 28.8656 324.303 28.3689 326.029 28.3689C326.206 28.3689 326.43 28.3784 326.662 28.3958C326.71 28.2809 326.723 28.2313 326.723 28.1687C326.723 27.9371 326.452 27.8505 325.726 27.8505C325.283 27.8505 324.781 27.8884 324.435 27.948L324.22 27.9851L324.08 28.0077L324.296 27.2213C325.07 27.0865 325.582 27.0355 326.156 27.0355C327.492 27.0355 328.198 27.3908 328.198 28.0615C328.198 28.2341 328.174 28.3652 328.071 28.7545L327.747 29.9954L327.692 30.2181L327.652 30.3959L327.626 30.5176L327.61 30.6126V30.6126ZM326.477 29.0542C326.361 29.0445 326.245 29.0397 326.129 29.0398C325.249 29.0398 324.802 29.2187 324.802 29.5719C324.802 29.7896 325.02 29.9286 325.36 29.9286C325.993 29.9288 326.45 29.5715 326.477 29.0542ZM332.708 30.537C332.189 30.632 331.654 30.6798 331.116 30.6789C329.379 30.678 328.473 30.1406 328.473 29.1118C328.473 27.9111 329.625 27.0271 331.189 27.0271C332.468 27.0271 333.285 27.5222 333.285 28.2985C333.285 28.5562 333.229 28.8075 333.094 29.1621H330.005C329.995 29.1984 329.99 29.2351 329.99 29.2719C329.99 29.6774 330.45 29.8842 331.353 29.8842C331.908 29.8842 332.41 29.8158 332.967 29.6629L332.708 30.537ZM331.881 28.4557C331.889 28.3829 331.894 28.3233 331.894 28.2773C331.894 27.9932 331.621 27.8265 331.159 27.8265C330.664 27.8265 330.311 28.0501 330.167 28.4536L331.881 28.4557ZM349.295 29.0267C349.062 30.1903 347.866 30.7063 346.276 30.7063C344.518 30.7063 343.808 29.9817 343.808 29.0939C343.808 27.8542 345.011 27.0143 346.868 27.0143C348.48 27.0143 349.336 27.705 349.336 28.5929C349.336 28.809 349.336 28.8233 349.295 29.0267ZM347.694 28.5791C347.694 28.2132 347.476 27.8678 346.839 27.8678C346.046 27.8678 345.554 28.5046 345.554 29.0669C345.554 29.5411 345.891 29.8597 346.446 29.8529C346.783 29.8529 347.502 29.5412 347.644 28.9967C347.677 28.8698 347.694 28.7304 347.694 28.5791V28.5791Z" fill="white"/>
<mask id="path-21-inside-1_1509_188" fill="white">
<path fill-rule="evenodd" clip-rule="evenodd" d="M23.9307 31.5098L23.9345 31.5046C24.38 30.9041 24.6806 30.2999 24.9911 29.5115C25.2762 28.7876 25.3505 28.0522 25.3464 27.2752C25.3424 26.5369 25.1911 25.7837 24.9535 25.005C24.7278 24.3431 24.35 23.6684 23.8895 23.0611L23.8857 23.056L23.882 23.0509C23.674 22.763 23.2141 22.6826 22.8579 22.9399C22.5728 23.1459 22.4912 23.599 22.7397 23.9537C23.1097 24.4151 23.3806 24.9563 23.5603 25.4863C23.7475 26.038 23.8385 26.6662 23.8418 27.2832C23.8451 27.9003 23.7608 28.5294 23.5795 29.0831C23.4054 29.6149 23.1402 30.159 22.7752 30.6243C22.5305 30.9817 22.6169 31.4339 22.9042 31.6368C23.2631 31.8903 23.7221 31.8051 23.927 31.515L23.9307 31.5098ZM22.3348 30.2979C22.6577 29.8899 22.8989 29.4011 23.0588 28.9126C23.2187 28.4242 23.297 27.855 23.2939 27.2862C23.2909 26.7174 23.2066 26.149 23.0415 25.6623C22.8764 25.1756 22.63 24.6893 22.3028 24.2848C21.8935 23.7181 21.9704 22.9051 22.5371 22.4958C23.1037 22.0865 23.9168 22.1634 24.3261 22.73C24.8171 23.3775 25.2273 24.1067 25.475 24.8367C25.7231 25.648 25.8899 26.4597 25.8942 27.2723C25.8986 28.0849 25.8216 28.8979 25.5009 29.7122C25.1802 30.5266 24.8586 31.1784 24.3745 31.831C23.9713 32.402 23.1591 32.4876 22.5881 32.0843C22.0172 31.6811 21.9316 30.8689 22.3348 30.2979ZM27.2731 32.934L27.2641 32.9467C27.0832 33.2028 27.153 33.679 27.5346 33.9587C27.8866 34.1667 28.2948 34.0638 28.5615 33.6968C29.7141 31.8247 30.3972 29.6508 30.3844 27.2484C30.372 24.9253 29.6645 22.6785 28.493 20.8199C28.2095 20.44 27.7316 20.3749 27.4771 20.5587C27.0981 20.8325 26.9971 21.2541 27.222 21.6107C28.2595 23.2348 28.8689 25.2012 28.8799 27.2564C28.8908 29.3121 28.3021 31.2854 27.2814 32.9207L27.2731 32.934ZM28.9461 20.5114C30.1754 22.4551 30.9193 24.8077 30.9323 27.2455C30.9457 29.7645 30.2265 32.0436 29.018 34.0003C28.6147 34.5713 27.8847 34.819 27.2324 34.4162C26.6615 34.0129 26.4134 33.2016 26.8166 32.6306C27.7835 31.0815 28.3424 29.2095 28.332 27.2593C28.3216 25.3091 27.7428 23.4432 26.7595 21.9045C26.3498 21.2566 26.5896 20.5239 27.1563 20.1146C27.7229 19.7053 28.5368 19.9447 28.9461 20.5114ZM33.2492 18.3968L33.2391 18.377C33.0846 18.0719 32.6523 17.9166 32.2087 18.1285C31.8409 18.3738 31.7444 18.7741 31.9393 19.176C33.38 21.5298 34.1461 24.2988 34.1617 27.2283C34.1773 30.1709 33.3533 32.9444 32.028 35.298C31.8336 35.7039 31.9336 36.1059 32.3057 36.3484C32.7146 36.5387 33.118 36.4304 33.3569 36.0463C34.9152 33.4424 35.7647 30.4494 35.7475 27.2198C35.7303 23.9888 34.8482 21.0037 33.2608 18.4158L33.2492 18.3968ZM33.8248 36.3313C33.422 36.9836 32.6915 37.15 32.0397 36.8284C31.3875 36.4256 31.221 35.6951 31.5426 35.0433C32.8306 32.7611 33.6289 30.0753 33.6138 27.2312C33.5987 24.3871 32.8531 21.7095 31.4595 19.4416C31.131 18.7933 31.2897 18.0611 31.9376 17.6513C32.5859 17.3228 33.3994 17.481 33.7279 18.1294C35.3673 20.8022 36.2776 23.8853 36.2953 27.2169C36.3131 30.5485 35.4357 33.6411 33.8248 36.3313ZM37.946 15.9277L37.9391 15.9141C37.7818 15.6037 37.337 15.4483 36.8852 15.6772C36.5774 15.8331 36.422 16.2718 36.6425 16.7196C38.4025 19.7874 39.5043 23.3631 39.5247 27.1997C39.5451 31.0265 38.5675 34.6161 36.7521 37.7145C36.5602 38.1191 36.6607 38.5193 37.0317 38.7611C37.4387 38.9505 37.8401 38.8441 38.0794 38.4644C39.9639 35.1216 41.0512 31.312 41.0293 27.1917C41.0073 23.0672 39.8772 19.2658 37.9536 15.9408L37.946 15.9277ZM38.5507 38.744C38.1479 39.3962 37.4174 39.5626 36.7656 39.2411C36.1134 38.8382 35.947 38.1078 36.2686 37.456C38.0403 34.4399 38.9968 30.9406 38.9769 27.2026C38.9569 23.4647 37.882 19.9762 36.1595 16.9787C35.831 16.3304 35.9892 15.517 36.6376 15.1885C37.2859 14.86 38.0994 15.0182 38.4279 15.6665C40.3962 19.069 41.5546 22.9633 41.5771 27.1888C41.5996 31.4143 40.4828 35.3207 38.5507 38.744Z"/>
</mask>
<path fill-rule="evenodd" clip-rule="evenodd" d="M23.9307 31.5098L23.9345 31.5046C24.38 30.9041 24.6806 30.2999 24.9911 29.5115C25.2762 28.7876 25.3505 28.0522 25.3464 27.2752C25.3424 26.5369 25.1911 25.7837 24.9535 25.005C24.7278 24.3431 24.35 23.6684 23.8895 23.0611L23.8857 23.056L23.882 23.0509C23.674 22.763 23.2141 22.6826 22.8579 22.9399C22.5728 23.1459 22.4912 23.599 22.7397 23.9537C23.1097 24.4151 23.3806 24.9563 23.5603 25.4863C23.7475 26.038 23.8385 26.6662 23.8418 27.2832C23.8451 27.9003 23.7608 28.5294 23.5795 29.0831C23.4054 29.6149 23.1402 30.159 22.7752 30.6243C22.5305 30.9817 22.6169 31.4339 22.9042 31.6368C23.2631 31.8903 23.7221 31.8051 23.927 31.515L23.9307 31.5098ZM22.3348 30.2979C22.6577 29.8899 22.8989 29.4011 23.0588 28.9126C23.2187 28.4242 23.297 27.855 23.2939 27.2862C23.2909 26.7174 23.2066 26.149 23.0415 25.6623C22.8764 25.1756 22.63 24.6893 22.3028 24.2848C21.8935 23.7181 21.9704 22.9051 22.5371 22.4958C23.1037 22.0865 23.9168 22.1634 24.3261 22.73C24.8171 23.3775 25.2273 24.1067 25.475 24.8367C25.7231 25.648 25.8899 26.4597 25.8942 27.2723C25.8986 28.0849 25.8216 28.8979 25.5009 29.7122C25.1802 30.5266 24.8586 31.1784 24.3745 31.831C23.9713 32.402 23.1591 32.4876 22.5881 32.0843C22.0172 31.6811 21.9316 30.8689 22.3348 30.2979ZM27.2731 32.934L27.2641 32.9467C27.0832 33.2028 27.153 33.679 27.5346 33.9587C27.8866 34.1667 28.2948 34.0638 28.5615 33.6968C29.7141 31.8247 30.3972 29.6508 30.3844 27.2484C30.372 24.9253 29.6645 22.6785 28.493 20.8199C28.2095 20.44 27.7316 20.3749 27.4771 20.5587C27.0981 20.8325 26.9971 21.2541 27.222 21.6107C28.2595 23.2348 28.8689 25.2012 28.8799 27.2564C28.8908 29.3121 28.3021 31.2854 27.2814 32.9207L27.2731 32.934ZM28.9461 20.5114C30.1754 22.4551 30.9193 24.8077 30.9323 27.2455C30.9457 29.7645 30.2265 32.0436 29.018 34.0003C28.6147 34.5713 27.8847 34.819 27.2324 34.4162C26.6615 34.0129 26.4134 33.2016 26.8166 32.6306C27.7835 31.0815 28.3424 29.2095 28.332 27.2593C28.3216 25.3091 27.7428 23.4432 26.7595 21.9045C26.3498 21.2566 26.5896 20.5239 27.1563 20.1146C27.7229 19.7053 28.5368 19.9447 28.9461 20.5114ZM33.2492 18.3968L33.2391 18.377C33.0846 18.0719 32.6523 17.9166 32.2087 18.1285C31.8409 18.3738 31.7444 18.7741 31.9393 19.176C33.38 21.5298 34.1461 24.2988 34.1617 27.2283C34.1773 30.1709 33.3533 32.9444 32.028 35.298C31.8336 35.7039 31.9336 36.1059 32.3057 36.3484C32.7146 36.5387 33.118 36.4304 33.3569 36.0463C34.9152 33.4424 35.7647 30.4494 35.7475 27.2198C35.7303 23.9888 34.8482 21.0037 33.2608 18.4158L33.2492 18.3968ZM33.8248 36.3313C33.422 36.9836 32.6915 37.15 32.0397 36.8284C31.3875 36.4256 31.221 35.6951 31.5426 35.0433C32.8306 32.7611 33.6289 30.0753 33.6138 27.2312C33.5987 24.3871 32.8531 21.7095 31.4595 19.4416C31.131 18.7933 31.2897 18.0611 31.9376 17.6513C32.5859 17.3228 33.3994 17.481 33.7279 18.1294C35.3673 20.8022 36.2776 23.8853 36.2953 27.2169C36.3131 30.5485 35.4357 33.6411 33.8248 36.3313ZM37.946 15.9277L37.9391 15.9141C37.7818 15.6037 37.337 15.4483 36.8852 15.6772C36.5774 15.8331 36.422 16.2718 36.6425 16.7196C38.4025 19.7874 39.5043 23.3631 39.5247 27.1997C39.5451 31.0265 38.5675 34.6161 36.7521 37.7145C36.5602 38.1191 36.6607 38.5193 37.0317 38.7611C37.4387 38.9505 37.8401 38.8441 38.0794 38.4644C39.9639 35.1216 41.0512 31.312 41.0293 27.1917C41.0073 23.0672 39.8772 19.2658 37.9536 15.9408L37.946 15.9277ZM38.5507 38.744C38.1479 39.3962 37.4174 39.5626 36.7656 39.2411C36.1134 38.8382 35.947 38.1078 36.2686 37.456C38.0403 34.4399 38.9968 30.9406 38.9769 27.2026C38.9569 23.4647 37.882 19.9762 36.1595 16.9787C35.831 16.3304 35.9892 15.517 36.6376 15.1885C37.2859 14.86 38.0994 15.0182 38.4279 15.6665C40.3962 19.069 41.5546 22.9633 41.5771 27.1888C41.5996 31.4143 40.4828 35.3207 38.5507 38.744Z" fill="white"/>
<path d="M23.9345 31.5046L24.9653 32.2693L24.9653 32.2692L23.9345 31.5046ZM23.9307 31.5098L22.8999 30.7451L22.891 30.7571L22.8824 30.7694L23.9307 31.5098ZM24.9911 29.5115L26.1853 29.9818L26.1853 29.9818L24.9911 29.5115ZM24.9535 25.005L26.181 24.6304L26.175 24.6105L26.1682 24.5908L24.9535 25.005ZM23.8895 23.0611L24.9122 22.2856L24.9121 22.2855L23.8895 23.0611ZM23.8857 23.056L22.8453 23.8075L22.8541 23.8197L22.8631 23.8316L23.8857 23.056ZM23.882 23.0509L24.9223 22.2994L24.9223 22.2993L23.882 23.0509ZM22.8579 22.9399L22.1064 21.8995L22.1064 21.8995L22.8579 22.9399ZM22.7397 23.9537L21.6884 24.69L21.7123 24.7241L21.7384 24.7566L22.7397 23.9537ZM23.5603 25.4863L22.345 25.8986L22.345 25.8986L23.5603 25.4863ZM23.5795 29.0831L22.3598 28.6838L22.3598 28.6838L23.5795 29.0831ZM22.7752 30.6243L21.7654 29.8322L21.7397 29.8649L21.7162 29.8993L22.7752 30.6243ZM22.9042 31.6368L23.6446 30.5885L23.6446 30.5885L22.9042 31.6368ZM23.927 31.515L24.9753 32.2554L24.9754 32.2553L23.927 31.515ZM23.0588 28.9126L21.8391 28.5133L21.8391 28.5133L23.0588 28.9126ZM22.3348 30.2979L21.3284 29.5015L21.3067 29.529L21.2865 29.5575L22.3348 30.2979ZM23.0415 25.6623L21.8261 26.0746L21.8261 26.0746L23.0415 25.6623ZM22.3028 24.2848L21.2625 25.0363L21.2829 25.0647L21.3049 25.0919L22.3028 24.2848ZM22.5371 22.4958L23.2886 23.5362L23.2886 23.5362L22.5371 22.4958ZM24.3261 22.73L23.2857 23.4816L23.2944 23.4937L23.3035 23.5056L24.3261 22.73ZM25.475 24.8367L26.7023 24.4614L26.6966 24.4428L26.6903 24.4244L25.475 24.8367ZM25.5009 29.7122L24.3068 29.2419L25.5009 29.7122ZM24.3745 31.831L23.3437 31.0665L23.3348 31.0784L23.3262 31.0906L24.3745 31.831ZM22.5881 32.0843L23.3285 31.036L23.3285 31.036L22.5881 32.0843ZM27.2641 32.9467L28.3125 33.6871L28.3125 33.6871L27.2641 32.9467ZM27.2731 32.934L28.3215 33.6743L28.3425 33.6445L28.3619 33.6136L27.2731 32.934ZM27.5346 33.9587L26.7761 34.9939L26.8272 35.0314L26.8817 35.0636L27.5346 33.9587ZM28.5615 33.6968L29.5998 34.4512L29.6286 34.4115L29.6544 34.3697L28.5615 33.6968ZM28.493 20.8199L29.5788 20.1356L29.5518 20.0929L29.5216 20.0524L28.493 20.8199ZM27.4771 20.5587L26.7256 19.5184L26.7256 19.5184L27.4771 20.5587ZM27.222 21.6107L26.1363 22.2952L26.1404 22.3016L27.222 21.6107ZM27.2814 32.9207L28.3701 33.6003L28.3702 33.6003L27.2814 32.9207ZM28.9461 20.5114L30.0308 19.8254L30.0097 19.7919L29.9865 19.7599L28.9461 20.5114ZM29.018 34.0003L30.0663 34.7408L30.0891 34.7084L30.1099 34.6748L29.018 34.0003ZM27.2324 34.4162L26.492 35.4645L26.5244 35.4873L26.558 35.5081L27.2324 34.4162ZM26.8166 32.6306L27.8649 33.371L27.886 33.3412L27.9054 33.3102L26.8166 32.6306ZM26.7595 21.9045L25.6748 22.5905L25.6781 22.5956L26.7595 21.9045ZM27.1563 20.1146L27.9078 21.155L27.9078 21.155L27.1563 20.1146ZM33.2391 18.377L32.0943 18.957L32.0943 18.9571L33.2391 18.377ZM33.2492 18.3968L32.1043 18.9769L32.1279 19.0234L32.1552 19.0679L33.2492 18.3968ZM32.2087 18.1285L31.6554 16.9704L31.5727 17.0099L31.4964 17.0608L32.2087 18.1285ZM31.9393 19.176L30.7846 19.7361L30.8119 19.7925L30.8447 19.846L31.9393 19.176ZM32.028 35.298L30.9097 34.6683L30.8888 34.7053L30.8704 34.7437L32.028 35.298ZM32.3057 36.3484L31.605 37.4236L31.6815 37.4735L31.7642 37.512L32.3057 36.3484ZM33.3569 36.0463L34.4467 36.724L34.4525 36.7147L34.4582 36.7053L33.3569 36.0463ZM33.2608 18.4158L34.3549 17.7448L34.3548 17.7448L33.2608 18.4158ZM33.8248 36.3313L34.9167 37.0057L34.9214 36.9982L34.9259 36.9907L33.8248 36.3313ZM32.0397 36.8284L31.3653 37.9203L31.4172 37.9524L31.4718 37.9794L32.0397 36.8284ZM31.5426 35.0433L30.4249 34.4125L30.4074 34.4435L30.3916 34.4755L31.5426 35.0433ZM31.4595 19.4416L30.3147 20.0217L30.3385 20.0686L30.366 20.1135L31.4595 19.4416ZM31.9376 17.6513L31.3575 16.5065L31.3031 16.534L31.2516 16.5666L31.9376 17.6513ZM33.7279 18.1294L32.583 18.7094L32.6066 18.7559L32.6338 18.8004L33.7279 18.1294ZM37.9391 15.9141L39.084 15.3341L39.084 15.3341L37.9391 15.9141ZM37.946 15.9277L36.8011 16.5077L36.8172 16.5395L36.8351 16.5703L37.946 15.9277ZM36.8852 15.6772L36.3051 14.5323L36.3051 14.5323L36.8852 15.6772ZM36.6425 16.7196L35.4911 17.2865L35.509 17.323L35.5293 17.3583L36.6425 16.7196ZM36.7521 37.7145L35.6448 37.0657L35.6165 37.1139L35.5925 37.1645L36.7521 37.7145ZM37.0317 38.7611L36.3309 39.8363L36.4074 39.8861L36.4902 39.9246L37.0317 38.7611ZM38.0794 38.4644L39.1652 39.1487L39.182 39.1221L39.1974 39.0946L38.0794 38.4644ZM37.9536 15.9408L36.8427 16.5835L36.8427 16.5835L37.9536 15.9408ZM36.7656 39.2411L36.0912 40.333L36.1431 40.3651L36.1978 40.392L36.7656 39.2411ZM38.5507 38.744L39.6427 39.4184L39.656 39.3969L39.6684 39.3748L38.5507 38.744ZM36.2686 37.456L35.1619 36.8059L35.1383 36.8462L35.1176 36.8881L36.2686 37.456ZM36.1595 16.9787L35.0147 17.5588L35.0299 17.5889L35.0467 17.6182L36.1595 16.9787ZM36.6376 15.1885L37.2176 16.3333L37.2176 16.3333L36.6376 15.1885ZM38.4279 15.6665L37.283 16.2466L37.2991 16.2783L37.3169 16.3092L38.4279 15.6665ZM22.9037 30.74L22.8999 30.7451L24.9615 32.2744L24.9653 32.2693L22.9037 30.74ZM23.797 29.0412C23.5104 29.7689 23.2586 30.2615 22.9037 30.7401L24.9653 32.2692C25.5013 31.5466 25.8509 30.8308 26.1853 29.9818L23.797 29.0412ZM24.063 27.2821C24.0666 27.9756 23.9987 28.5291 23.797 29.0412L26.1853 29.9818C26.5538 29.046 26.6343 28.1287 26.6298 27.2684L24.063 27.2821ZM23.7259 25.3795C23.9422 26.0885 24.0599 26.7113 24.063 27.2821L26.6298 27.2684C26.6249 26.3626 26.4399 25.4789 26.181 24.6304L23.7259 25.3795ZM22.8669 23.8366C23.2604 24.3555 23.5651 24.91 23.7387 25.4192L26.1682 24.5908C25.8904 23.7761 25.4397 22.9812 24.9122 22.2856L22.8669 23.8366ZM22.8631 23.8316L22.867 23.8367L24.9121 22.2855L24.9083 22.2805L22.8631 23.8316ZM22.8416 23.8024L22.8453 23.8075L24.9261 22.3045L24.9223 22.2994L22.8416 23.8024ZM23.6094 23.9803C23.454 24.0925 23.0927 24.1501 22.8416 23.8024L24.9223 22.2993C24.2552 21.3758 22.9742 21.2727 22.1064 21.8995L23.6094 23.9803ZM23.7909 23.2174C23.8554 23.3096 23.8882 23.4334 23.8704 23.5642C23.8537 23.6865 23.7845 23.8538 23.6094 23.9803L22.1064 21.8995C21.1917 22.5602 21.082 23.8241 21.6884 24.69L23.7909 23.2174ZM24.7757 25.0739C24.5578 24.4315 24.222 23.7508 23.7409 23.1508L21.7384 24.7566C21.9973 25.0794 22.2033 25.4811 22.345 25.8986L24.7757 25.0739ZM25.1252 27.2764C25.1213 26.5464 25.0146 25.778 24.7757 25.0739L22.345 25.8986C22.4805 26.298 22.5557 26.786 22.5584 27.2901L25.1252 27.2764ZM24.7992 29.4825C25.0305 28.7759 25.1291 28.0065 25.1252 27.2764L22.5584 27.2901C22.5611 27.7941 22.491 28.283 22.3598 28.6838L24.7992 29.4825ZM23.785 31.4165C24.2596 30.8114 24.5881 30.1272 24.7992 29.4825L22.3598 28.6838C22.2226 29.1027 22.0208 29.5066 21.7654 29.8322L23.785 31.4165ZM23.6446 30.5885C23.8211 30.7131 23.892 30.8796 23.91 31.0017C23.9292 31.1323 23.8977 31.2566 23.8342 31.3494L21.7162 29.8993C21.119 30.7716 21.2422 32.0342 22.1638 32.6851L23.6446 30.5885ZM22.8787 30.7746C23.1261 30.4242 23.488 30.4779 23.6446 30.5885L22.1638 32.6851C23.0383 33.3027 24.3181 33.1859 24.9753 32.2554L22.8787 30.7746ZM22.8824 30.7694L22.8787 30.7746L24.9754 32.2553L24.979 32.2501L22.8824 30.7694ZM21.8391 28.5133C21.7165 28.8879 21.5395 29.2347 21.3284 29.5015L23.3413 31.0943C23.7759 30.5451 24.0813 29.9142 24.2785 29.312L21.8391 28.5133ZM22.0105 27.293C22.013 27.7488 21.949 28.1777 21.8391 28.5133L24.2785 29.312C24.4885 28.6707 24.581 27.9611 24.5773 27.2793L22.0105 27.293ZM21.8261 26.0746C21.9396 26.409 22.0081 26.8372 22.0105 27.293L24.5773 27.2793C24.5737 26.5975 24.4737 25.889 24.2569 25.25L21.8261 26.0746ZM21.3049 25.0919C21.5189 25.3564 21.6995 25.7013 21.8261 26.0746L24.2569 25.25C24.0533 24.6498 23.7412 24.0223 23.3007 23.4777L21.3049 25.0919ZM21.7856 21.4554C20.566 22.3364 20.497 23.9767 21.2625 25.0363L23.3432 23.5333C23.3375 23.5253 23.3331 23.516 23.3305 23.5059C23.3277 23.4951 23.3279 23.487 23.3283 23.4837C23.3287 23.4807 23.3285 23.4868 23.3216 23.4991C23.3181 23.5053 23.3132 23.5123 23.307 23.5193C23.3007 23.5264 23.2943 23.5321 23.2886 23.5362L21.7856 21.4554ZM25.3665 21.9785C24.4855 20.7589 22.8452 20.69 21.7856 21.4554L23.2886 23.5362C23.2965 23.5304 23.3058 23.5261 23.316 23.5234C23.3267 23.5207 23.3349 23.5209 23.3382 23.5213C23.3412 23.5216 23.3351 23.5215 23.3227 23.5145C23.3165 23.511 23.3095 23.5062 23.3025 23.5C23.2955 23.4937 23.2898 23.4872 23.2857 23.4816L25.3665 21.9785ZM26.6903 24.4244C26.3905 23.5407 25.907 22.6907 25.3487 21.9545L23.3035 23.5056C23.7272 24.0644 24.064 24.6727 24.2596 25.249L26.6903 24.4244ZM27.1776 27.2655C27.1724 26.2849 26.9717 25.3424 26.7023 24.4614L24.2476 25.212C24.4744 25.9537 24.6074 26.6346 24.6108 27.2792L27.1776 27.2655ZM26.6951 30.1825C27.0992 29.1565 27.1824 28.1615 27.1776 27.2655L24.6108 27.2792C24.6147 28.0083 24.5441 28.6394 24.3068 29.2419L26.6951 30.1825ZM25.4054 32.5956C25.9799 31.8209 26.3505 31.0576 26.6951 30.1825L24.3068 29.2419C24.01 29.9956 23.7373 30.5358 23.3437 31.0665L25.4054 32.5956ZM21.8477 33.1326C22.9154 33.8867 24.5549 33.8004 25.4229 32.5714L23.3262 31.0906C23.3302 31.0849 23.3358 31.0784 23.3429 31.072C23.3498 31.0658 23.3567 31.0609 23.3629 31.0573C23.3752 31.0502 23.3813 31.05 23.3783 31.0504C23.375 31.0508 23.3668 31.0511 23.3561 31.0484C23.3459 31.0459 23.3365 31.0416 23.3285 31.036L21.8477 33.1326ZM21.2865 29.5575C20.5324 30.6252 20.6188 32.2647 21.8477 33.1326L23.3285 31.036C23.3342 31.04 23.3408 31.0456 23.3471 31.0526C23.3534 31.0596 23.3583 31.0665 23.3619 31.0727C23.369 31.0849 23.3692 31.0911 23.3688 31.0881C23.3684 31.0847 23.3681 31.0766 23.3707 31.0659C23.3732 31.0557 23.3775 31.0463 23.3832 31.0383L21.2865 29.5575ZM28.3125 33.6871L28.3215 33.6743L26.2248 32.1936L26.2158 32.2063L28.3125 33.6871ZM28.2932 32.9234C28.3566 32.9699 28.4148 33.0495 28.4396 33.1578C28.459 33.2427 28.4777 33.4532 28.3125 33.6871L26.2158 32.2063C25.5467 33.1537 25.9555 34.3927 26.7761 34.9939L28.2932 32.9234ZM27.5232 32.9424C27.5393 32.9203 27.6116 32.8382 27.764 32.7995C27.9264 32.7582 28.0834 32.7922 28.1875 32.8537L26.8817 35.0636C27.8899 35.6593 29.006 35.2684 29.5998 34.4512L27.5232 32.9424ZM29.101 27.2552C29.1124 29.401 28.5045 31.3413 27.4686 33.024L29.6544 34.3697C30.9237 32.308 31.682 29.9007 31.6678 27.2416L29.101 27.2552ZM27.4073 21.5043C28.4577 23.1709 29.09 25.1847 29.101 27.2552L31.6678 27.2416C31.6541 24.6659 30.8712 22.1861 29.5788 20.1356L27.4073 21.5043ZM28.2286 21.5991C27.9962 21.767 27.7853 21.7503 27.7003 21.7318C27.5917 21.708 27.5114 21.6505 27.4644 21.5875L29.5216 20.0524C28.9121 19.2356 27.667 18.8383 26.7256 19.5184L28.2286 21.5991ZM28.3076 20.9261C28.3718 21.0279 28.4111 21.1874 28.3706 21.3552C28.3327 21.5121 28.2484 21.5848 28.2286 21.5991L26.7256 19.5184C26.3268 19.8064 26.0025 20.2269 25.8756 20.7521C25.746 21.2883 25.8473 21.8368 26.1363 22.2952L28.3076 20.9261ZM30.1633 27.2496C30.151 24.9473 29.4692 22.7443 28.3035 20.9197L26.1404 22.3016C27.0499 23.7252 27.5868 25.4551 27.5965 27.2632L30.1633 27.2496ZM28.3702 33.6003C29.5169 31.7631 30.1755 29.5524 30.1633 27.2496L27.5965 27.2632C27.6061 29.0718 27.0873 30.8078 26.1927 32.2412L28.3702 33.6003ZM28.3619 33.6136L28.3701 33.6003L26.1927 32.2411L26.1844 32.2544L28.3619 33.6136ZM32.2157 27.2386C32.2013 24.5476 31.3817 21.9614 30.0308 19.8254L27.8614 21.1974C28.9691 22.9488 29.6372 25.0678 29.6489 27.2523L32.2157 27.2386ZM30.1099 34.6748C31.4356 32.5283 32.2305 30.0151 32.2157 27.2386L29.6489 27.2523C29.6609 29.5139 29.0173 31.559 27.926 33.3259L30.1099 34.6748ZM26.558 35.5081C27.8968 36.335 29.3508 35.7539 30.0663 34.7408L27.9697 33.2599C27.9485 33.2899 27.9275 33.3092 27.9118 33.3205C27.8962 33.3317 27.8885 33.3332 27.8913 33.3325C27.8953 33.3314 27.9052 33.33 27.9168 33.3317C27.9293 33.3335 27.9265 33.3363 27.9069 33.3242L26.558 35.5081ZM25.7683 31.8902C24.8492 33.1915 25.506 34.7681 26.492 35.4645L27.9728 33.3678C27.9592 33.3582 27.9428 33.3425 27.928 33.3211C27.9131 33.2993 27.9055 33.2798 27.9026 33.2684C27.8998 33.2572 27.9036 33.2632 27.9003 33.2852C27.8965 33.3102 27.8852 33.3424 27.8649 33.371L25.7683 31.8902ZM27.0486 27.2662C27.0577 28.9692 26.5687 30.6039 25.7279 31.9511L27.9054 33.3102C28.9983 31.5592 29.6271 29.4499 29.6154 27.2525L27.0486 27.2662ZM25.6781 22.5956C26.5332 23.9338 27.0395 25.5631 27.0486 27.2662L29.6154 27.2525C29.6037 25.0551 28.9525 22.9526 27.841 21.2134L25.6781 22.5956ZM26.4048 19.0742C25.3993 19.8005 24.8337 21.2606 25.6748 22.5905L27.8442 21.2185C27.8319 21.199 27.8347 21.1961 27.8366 21.2086C27.8385 21.2202 27.8372 21.2301 27.8361 21.2341C27.8354 21.237 27.8369 21.2292 27.8479 21.2135C27.859 21.1977 27.8781 21.1764 27.9078 21.155L26.4048 19.0742ZM29.9865 19.7599C29.2797 18.7813 27.6962 18.1414 26.4048 19.0742L27.9078 21.155C27.8794 21.1755 27.8473 21.1872 27.8223 21.1912C27.8004 21.1948 27.7944 21.191 27.8056 21.1938C27.817 21.1966 27.8366 21.2039 27.8585 21.2186C27.8801 21.2331 27.896 21.2494 27.9058 21.2629L29.9865 19.7599ZM32.0943 18.9571L32.1043 18.9769L34.394 17.8167L34.384 17.7969L32.0943 18.9571ZM32.7619 19.2866C32.707 19.3128 32.3163 19.3953 32.0943 18.957L34.384 17.7969C33.8528 16.7485 32.5977 16.5203 31.6554 16.9704L32.7619 19.2866ZM33.0941 18.6159C33.107 18.6424 33.1469 18.7514 33.1073 18.908C33.0663 19.0702 32.97 19.1634 32.9209 19.1962L31.4964 17.0608C31.0796 17.3389 30.7512 17.7548 30.6187 18.2791C30.4877 18.7976 30.5768 19.3077 30.7846 19.7361L33.0941 18.6159ZM35.4451 27.2215C35.4283 24.072 34.6041 21.0712 33.034 18.506L30.8447 19.846C32.156 21.9884 32.8638 24.5257 32.8783 27.2351L35.4451 27.2215ZM33.1463 35.9277C34.5698 33.3996 35.462 30.4086 35.4451 27.2215L32.8783 27.2351C32.8926 29.9331 32.1367 32.4891 30.9097 34.6683L33.1463 35.9277ZM33.0065 35.2732C33.0563 35.3056 33.1541 35.3985 33.1965 35.5614C33.2373 35.7183 33.1976 35.8272 33.1855 35.8523L30.8704 34.7437C30.664 35.1747 30.5771 35.6876 30.7123 36.2075C30.8491 36.7335 31.183 37.1486 31.605 37.4236L33.0065 35.2732ZM32.267 35.3685C32.2948 35.3238 32.3829 35.2237 32.5465 35.1776C32.7051 35.1328 32.8184 35.1714 32.8473 35.1848L31.7642 37.512C32.202 37.7157 32.7214 37.7953 33.2436 37.6479C33.7708 37.4992 34.1801 37.1529 34.4467 36.724L32.267 35.3685ZM34.4641 27.2267C34.48 30.2208 33.6941 32.9837 32.2556 35.3872L34.4582 36.7053C36.1363 33.9012 37.0493 30.678 37.0309 27.213L34.4641 27.2267ZM32.1668 19.0868C33.632 21.4757 34.4481 24.2312 34.4641 27.2267L37.0309 27.213C37.0124 23.7464 36.0643 20.5317 34.3549 17.7448L32.1668 19.0868ZM32.1552 19.0679L32.1668 19.0869L34.3548 17.7448L34.3432 17.7258L32.1552 19.0679ZM32.7328 35.6569C32.7111 35.6921 32.6956 35.7041 32.6936 35.7056C32.6917 35.7071 32.694 35.7052 32.6983 35.7041C32.711 35.7007 32.6824 35.7144 32.6075 35.6774L31.4718 37.9794C32.6714 38.5712 34.1401 38.2632 34.9167 37.0057L32.7328 35.6569ZM32.7141 35.7365C32.679 35.7148 32.667 35.6992 32.6654 35.6972C32.664 35.6953 32.6658 35.6976 32.667 35.7019C32.6703 35.7146 32.6566 35.6861 32.6936 35.6111L30.3916 34.4755C29.7998 35.6751 30.1079 37.1437 31.3653 37.9203L32.7141 35.7365ZM32.6603 35.6741C34.0469 33.2173 34.9137 30.3135 34.8972 27.2244L32.3304 27.238C32.3442 29.837 31.6144 32.305 30.4249 34.4125L32.6603 35.6741ZM34.8972 27.2244C34.8809 24.1596 34.0767 21.2495 32.553 18.7697L30.366 20.1135C31.6294 22.1695 32.3164 24.6147 32.3304 27.238L34.8972 27.2244ZM32.6044 18.8615C32.5666 18.787 32.58 18.7584 32.5768 18.7711C32.5757 18.7754 32.5739 18.7777 32.5753 18.7758C32.5768 18.7737 32.5887 18.7581 32.6236 18.736L31.2516 16.5666C30.0025 17.3566 29.7101 18.8284 30.3147 20.0217L32.6044 18.8615ZM32.5176 18.7962C32.5467 18.7815 32.5758 18.7732 32.6014 18.7701C32.6273 18.7669 32.6434 18.7696 32.648 18.7708C32.652 18.7717 32.6413 18.7698 32.6236 18.7564C32.604 18.7415 32.5898 18.7228 32.583 18.7094L34.8727 17.5493C34.1432 16.1094 32.4662 15.9447 31.3575 16.5065L32.5176 18.7962ZM32.6338 18.8004C34.1512 21.2742 34.9955 24.1277 35.0119 27.2238L37.5787 27.2101C37.5598 23.6429 36.5834 20.3303 34.8219 17.4583L32.6338 18.8004ZM35.0119 27.2238C35.0284 30.3198 34.2146 33.1821 32.7237 35.672L34.9259 36.9907C36.6568 34.1001 37.5977 30.7773 37.5787 27.2101L35.0119 27.2238ZM36.7943 16.4942L36.8011 16.5077L39.0909 15.3476L39.084 15.3341L36.7943 16.4942ZM37.4653 16.822C37.419 16.8455 37.0214 16.9424 36.7943 16.4942L39.084 15.3341C38.5423 14.2649 37.255 14.0511 36.3051 14.5323L37.4653 16.822ZM37.7939 16.1527C37.8188 16.2032 37.9085 16.5974 37.4653 16.822L36.3051 14.5323C35.2462 15.0689 35.0252 16.3403 35.4911 17.2865L37.7939 16.1527ZM40.8081 27.1929C40.7864 23.1119 39.6143 19.3205 37.7557 16.0809L35.5293 17.3583C37.1907 20.2543 38.2222 23.6143 38.2413 27.2066L40.8081 27.1929ZM37.8595 38.3633C39.7935 35.0624 40.8297 31.2457 40.8081 27.1929L38.2413 27.2066C38.2605 30.8073 37.3415 34.1698 35.6448 37.0657L37.8595 38.3633ZM37.7325 37.6858C37.782 37.7181 37.8795 37.8105 37.9221 37.9727C37.9632 38.1291 37.9241 38.2384 37.9117 38.2645L35.5925 37.1645C35.3882 37.5952 35.3034 38.1069 35.4395 38.625C35.5771 39.1488 35.9104 39.5622 36.3309 39.8363L37.7325 37.6858ZM36.9937 37.7801C37.0227 37.7341 37.1117 37.6349 37.2746 37.5897C37.4323 37.5458 37.5446 37.5842 37.5732 37.5975L36.4902 39.9246C36.9258 40.1274 37.4423 40.2073 37.9623 40.0626C38.4874 39.9166 38.8969 39.5744 39.1652 39.1487L36.9937 37.7801ZM39.7459 27.1986C39.7665 31.0825 38.7429 34.6739 36.9614 37.8341L39.1974 39.0946C41.1848 35.5693 42.3359 31.5414 42.3127 27.1849L39.7459 27.1986ZM36.8427 16.5835C38.6612 19.7269 39.7252 23.3106 39.7459 27.1986L42.3127 27.1849C42.2894 22.8239 41.0931 18.8047 39.0645 15.2982L36.8427 16.5835ZM36.8351 16.5703L36.8427 16.5835L39.0645 15.2982L39.0569 15.285L36.8351 16.5703ZM36.1978 40.392C37.3974 40.9839 38.8661 40.6758 39.6427 39.4184L37.4588 38.0696C37.4371 38.1047 37.4216 38.1167 37.4196 38.1183C37.4176 38.1197 37.4199 38.1179 37.4242 38.1167C37.4369 38.1134 37.4084 38.1271 37.3335 38.0901L36.1978 40.392ZM35.1176 36.8881C34.5258 38.0877 34.8338 39.5564 36.0912 40.333L37.4401 38.1491C37.4049 38.1274 37.3929 38.1119 37.3914 38.1099C37.3899 38.1079 37.3918 38.1102 37.3929 38.1146C37.3963 38.1272 37.3826 38.0987 37.4195 38.0238L35.1176 36.8881ZM37.6934 27.2095C37.7121 30.7209 36.8145 33.9927 35.1619 36.8059L37.3752 38.106C39.266 34.8871 40.2814 31.1602 40.2603 27.1958L37.6934 27.2095ZM35.0467 17.6182C36.6704 20.4438 37.6748 23.7163 37.6934 27.2095L40.2603 27.1958C40.239 23.2132 39.0935 19.5087 37.2723 16.3393L35.0467 17.6182ZM36.0575 14.0436C34.6177 14.7731 34.4529 16.4501 35.0147 17.5588L37.3044 16.3987C37.2897 16.3696 37.2814 16.3405 37.2783 16.315C37.2751 16.289 37.2778 16.273 37.279 16.2683C37.2799 16.2644 37.278 16.2751 37.2646 16.2927C37.2497 16.3123 37.231 16.3265 37.2176 16.3333L36.0575 14.0436ZM39.5727 15.0864C38.8432 13.6466 37.1662 13.4819 36.0575 14.0436L37.2176 16.3333C37.2467 16.3186 37.2758 16.3104 37.3014 16.3072C37.3273 16.304 37.3434 16.3068 37.348 16.3079C37.352 16.3089 37.3413 16.3069 37.3236 16.2935C37.304 16.2786 37.2898 16.2599 37.283 16.2466L39.5727 15.0864ZM42.8605 27.182C42.8368 22.72 41.6122 18.6079 39.5388 15.0238L37.3169 16.3092C39.1803 19.5301 40.2725 23.2067 40.2937 27.1956L42.8605 27.182ZM39.6684 39.3748C41.7036 35.7689 42.8843 31.644 42.8605 27.182L40.2937 27.1956C40.315 31.1845 39.262 34.8726 37.433 38.1132L39.6684 39.3748Z" fill="white" mask="url(#path-21-inside-1_1509_188)"/>
<defs>
<filter id="filter0_b_1509_188" x="-22.1752" y="-22.1752" width="408.35" height="278.35" filterUnits="userSpaceOnUse" color-interpolation-filters="sRGB">
<feFlood flood-opacity="0" result="BackgroundImageFix"/>
<feGaussianBlur in="BackgroundImageFix" stdDeviation="11.4545"/>
<feComposite in2="SourceAlpha" operator="in" result="effect1_backgroundBlur_1509_188"/>
<feBlend mode="normal" in="SourceGraphic" in2="effect1_backgroundBlur_1509_188" result="shape"/>
</filter>
<filter id="filter1_f_1509_188" x="45.2627" y="-223.286" width="468.777" height="351.306" filterUnits="userSpaceOnUse" color-interpolation-filters="sRGB">
<feFlood flood-opacity="0" result="BackgroundImageFix"/>
<feBlend mode="normal" in="SourceGraphic" in2="BackgroundImageFix" result="shape"/>
<feGaussianBlur stdDeviation="27.9144" result="effect1_foregroundBlur_1509_188"/>
</filter>
<filter id="filter2_f_1509_188" x="-7.12112" y="-257.536" width="468.777" height="351.306" filterUnits="userSpaceOnUse" color-interpolation-filters="sRGB">
<feFlood flood-opacity="0" result="BackgroundImageFix"/>
<feBlend mode="normal" in="SourceGraphic" in2="BackgroundImageFix" result="shape"/>
<feGaussianBlur stdDeviation="27.9144" result="effect1_foregroundBlur_1509_188"/>
</filter>
<filter id="filter3_di_1509_188" x="15.9418" y="80.3816" width="282.081" height="24.4939" filterUnits="userSpaceOnUse" color-interpolation-filters="sRGB">
<feFlood flood-opacity="0" result="BackgroundImageFix"/>
<feColorMatrix in="SourceAlpha" type="matrix" values="0 0 0 0 0 0 0 0 0 0 0 0 0 0 0 0 0 0 127 0" result="hardAlpha"/>
<feOffset dy="1.28342"/>
<feGaussianBlur stdDeviation="1.60428"/>
<feComposite in2="hardAlpha" operator="out"/>
<feColorMatrix type="matrix" values="0 0 0 0 0.0916667 0 0 0 0 0.0916667 0 0 0 0 0.0916667 0 0 0 0.4 0"/>
<feBlend mode="normal" in2="BackgroundImageFix" result="effect1_dropShadow_1509_188"/>
<feBlend mode="normal" in="SourceGraphic" in2="effect1_dropShadow_1509_188" result="shape"/>
<feColorMatrix in="SourceAlpha" type="matrix" values="0 0 0 0 0 0 0 0 0 0 0 0 0 0 0 0 0 0 127 0" result="hardAlpha"/>
<feOffset dy="2.56684"/>
<feGaussianBlur stdDeviation="1.28342"/>
<feComposite in2="hardAlpha" operator="arithmetic" k2="-1" k3="1"/>
<feColorMatrix type="matrix" values="0 0 0 0 0.683333 0 0 0 0 0.683333 0 0 0 0 0.683333 0 0 0 0.25 0"/>
<feBlend mode="normal" in2="shape" result="effect2_innerShadow_1509_188"/>
</filter>
<filter id="filter4_di_1509_188" x="16.3179" y="140.968" width="217.231" height="15.5989" filterUnits="userSpaceOnUse" color-interpolation-filters="sRGB">
<feFlood flood-opacity="0" result="BackgroundImageFix"/>
<feColorMatrix in="SourceAlpha" type="matrix" values="0 0 0 0 0 0 0 0 0 0 0 0 0 0 0 0 0 0 127 0" result="hardAlpha"/>
<feOffset dy="2.56684"/>
<feGaussianBlur stdDeviation="1.28342"/>
<feComposite in2="hardAlpha" operator="out"/>
<feColorMatrix type="matrix" values="0 0 0 0 0.0875 0 0 0 0 0.0875 0 0 0 0 0.0875 0 0 0 0.16 0"/>
<feBlend mode="normal" in2="BackgroundImageFix" result="effect1_dropShadow_1509_188"/>
<feBlend mode="normal" in="SourceGraphic" in2="effect1_dropShadow_1509_188" result="shape"/>
<feColorMatrix in="SourceAlpha" type="matrix" values="0 0 0 0 0 0 0 0 0 0 0 0 0 0 0 0 0 0 127 0" result="hardAlpha"/>
<feOffset dy="2.56684"/>
<feGaussianBlur stdDeviation="1.28342"/>
<feComposite in2="hardAlpha" operator="arithmetic" k2="-1" k3="1"/>
<feColorMatrix type="matrix" values="0 0 0 0 0.682353 0 0 0 0 0.682353 0 0 0 0 0.682353 0 0 0 0.25 0"/>
<feBlend mode="normal" in2="shape" result="effect2_innerShadow_1509_188"/>
</filter>
<filter id="filter5_di_1509_188" x="16.1343" y="187.63" width="46.507" height="17.324" filterUnits="userSpaceOnUse" color-interpolation-filters="sRGB">
<feFlood flood-opacity="0" result="BackgroundImageFix"/>
<feColorMatrix in="SourceAlpha" type="matrix" values="0 0 0 0 0 0 0 0 0 0 0 0 0 0 0 0 0 0 127 0" result="hardAlpha"/>
<feOffset dy="2.56684"/>
<feGaussianBlur stdDeviation="1.28342"/>
<feComposite in2="hardAlpha" operator="out"/>
<feColorMatrix type="matrix" values="0 0 0 0 0.0875 0 0 0 0 0.0875 0 0 0 0 0.0875 0 0 0 0.16 0"/>
<feBlend mode="normal" in2="BackgroundImageFix" result="effect1_dropShadow_1509_188"/>
<feBlend mode="normal" in="SourceGraphic" in2="effect1_dropShadow_1509_188" result="shape"/>
<feColorMatrix in="SourceAlpha" type="matrix" values="0 0 0 0 0 0 0 0 0 0 0 0 0 0 0 0 0 0 127 0" result="hardAlpha"/>
<feOffset dy="2.56684"/>
<feGaussianBlur stdDeviation="1.28342"/>
<feComposite in2="hardAlpha" operator="arithmetic" k2="-1" k3="1"/>
<feColorMatrix type="matrix" values="0 0 0 0 0.682353 0 0 0 0 0.682353 0 0 0 0 0.682353 0 0 0 0.25 0"/>
<feBlend mode="normal" in2="shape" result="effect2_innerShadow_1509_188"/>
</filter>
<linearGradient id="paint0_linear_1509_188" x1="2" y1="2" x2="130.405" y2="324.275" gradientUnits="userSpaceOnUse">
<stop stop-color="white" stop-opacity="0.4"/>
<stop offset="1" stop-color="white" stop-opacity="0"/>
</linearGradient>
<radialGradient id="paint1_radial_1509_188" cx="0" cy="0" r="1" gradientUnits="userSpaceOnUse" gradientTransform="translate(2 2) rotate(32.5741) scale(427.2 269.348)">
<stop stop-color="white" stop-opacity="0.7"/>
<stop offset="0.677083" stop-color="#B691FF" stop-opacity="0.4"/>
<stop offset="1" stop-color="white" stop-opacity="0"/>
</radialGradient>
<linearGradient id="paint2_linear_1509_188" x1="351.951" y1="228.167" x2="316.94" y2="84.1868" gradientUnits="userSpaceOnUse">
<stop stop-color="white" stop-opacity="0.32"/>
<stop offset="0.140625" stop-color="#F9FFF5"/>
<stop offset="1" stop-color="white" stop-opacity="0"/>
</linearGradient>
<linearGradient id="paint3_linear_1509_188" x1="357.631" y1="3.74243" x2="323.401" y2="148.648" gradientUnits="userSpaceOnUse">
<stop stop-color="#535E5C"/>
<stop offset="1" stop-color="white" stop-opacity="0"/>
</linearGradient>
</defs>
</svg>
