<svg width="43" height="29" viewBox="0 0 43 29" fill="none" xmlns="http://www.w3.org/2000/svg">
<path fill-rule="evenodd" clip-rule="evenodd" d="M0 0H43V29H0V0Z" fill="white"/>
<path fill-rule="evenodd" clip-rule="evenodd" d="M21.5001 20.7878C22.7961 19.9905 23.8306 19.0193 24.5375 17.9365C25.2443 16.8537 25.6077 15.6832 25.6046 14.5001C25.6078 13.317 25.2443 12.1465 24.5375 11.0637C23.8307 9.98094 22.7961 9.00972 21.5001 8.21238C19.284 6.84811 16.3443 6.01672 13.1183 6.01672C6.22271 6.01672 0.632324 9.81482 0.632324 14.5001C0.632324 19.1852 6.22271 22.9835 13.1183 22.9835C16.3443 22.9835 19.2843 22.1521 21.5001 20.7878Z" fill="#3A9BD9"/>
<path fill-rule="evenodd" clip-rule="evenodd" d="M29.8819 6.01672C26.6559 6.01672 23.7157 6.84811 21.5001 8.21238C21.0483 8.49083 20.6269 8.79101 20.2395 9.11056H22.7598C23.1059 9.39578 23.424 9.69586 23.7124 10.0089H19.2876C19.0212 10.2984 18.7808 10.5983 18.5677 10.9072H24.4312C24.633 11.1996 24.8099 11.4995 24.961 11.8054H18.039C17.8939 12.1001 17.7729 12.3999 17.6765 12.7036H25.3237C25.5109 13.2941 25.6051 13.8963 25.6048 14.5001C25.6048 15.4419 25.3781 16.3481 24.9612 17.1947H18.039C18.1896 17.5007 18.3661 17.8006 18.5677 18.093H24.4312C24.2184 18.4019 23.9783 18.7019 23.7122 18.9913H19.2876C19.5757 19.3043 19.8935 19.6044 20.2393 19.8896H22.7598C22.3729 20.2093 21.9518 20.5096 21.5001 20.788C23.7157 22.1523 26.6559 22.9836 29.8819 22.9836C36.7773 22.9836 42.3679 19.1854 42.3679 14.5003C42.3679 9.81481 36.7773 6.01672 29.8819 6.01672Z" fill="#CC2131"/>
<path fill-rule="evenodd" clip-rule="evenodd" d="M40.7051 19.2291C40.7051 19.0777 40.8856 18.955 41.1086 18.955C41.3313 18.955 41.5117 19.0777 41.5117 19.2291C41.5117 19.3801 41.3313 19.5029 41.1086 19.5029C41.0013 19.5027 40.8985 19.4737 40.8228 19.4223C40.7471 19.371 40.7048 19.3015 40.7051 19.2291ZM41.1084 19.437C41.2775 19.437 41.4147 19.3442 41.4147 19.2289C41.4147 19.1137 41.2775 19.0206 41.1084 19.0206C40.9389 19.0206 40.8017 19.1137 40.8017 19.2289C40.8017 19.3442 40.9391 19.437 41.1084 19.437ZM41.054 19.3491H40.9712V19.1081H41.1211C41.1521 19.1081 41.1838 19.1087 41.2113 19.1205C41.2255 19.1272 41.2371 19.1363 41.245 19.1468C41.2528 19.1572 41.2568 19.1689 41.2565 19.1806C41.2565 19.2077 41.2331 19.2333 41.1952 19.2429L41.2606 19.349H41.1686L41.1147 19.2537H41.0542V19.3491V19.2128H41.0999C41.1164 19.2128 41.1352 19.2134 41.1501 19.2079C41.1568 19.2048 41.1621 19.2006 41.1658 19.1958C41.1695 19.191 41.1713 19.1856 41.1711 19.1802C41.1708 19.1753 41.1689 19.1706 41.1654 19.1664C41.1619 19.1621 41.157 19.1585 41.151 19.1558C41.1367 19.1499 41.1135 19.1514 41.0979 19.1514H41.0544V19.3491H41.054Z" fill="#CC2131"/>
<path fill-rule="evenodd" clip-rule="evenodd" d="M38.0647 16.3387C38.0647 16.1874 38.2452 16.0646 38.4678 16.0646C38.6905 16.0646 38.8709 16.1874 38.8709 16.3387C38.8709 16.4901 38.6905 16.6126 38.4678 16.6126C38.2452 16.6126 38.0647 16.49 38.0647 16.3387ZM38.4676 16.5467C38.6367 16.5467 38.7739 16.4535 38.7739 16.3386C38.7739 16.2234 38.6367 16.1302 38.4676 16.1302C38.2981 16.1302 38.1613 16.2234 38.1613 16.3386C38.1613 16.4535 38.2983 16.5467 38.4676 16.5467ZM38.4132 16.4588H38.3304V16.2181H38.4803C38.5113 16.2181 38.5435 16.2184 38.5705 16.2304C38.5847 16.2371 38.5963 16.2461 38.6042 16.2566C38.6121 16.267 38.616 16.2786 38.6157 16.2903C38.6157 16.3177 38.5925 16.343 38.5544 16.3526L38.6198 16.4587H38.5283L38.4739 16.3634H38.4134V16.4588V16.3225H38.4591C38.4761 16.3225 38.4948 16.3234 38.5093 16.3178C38.5159 16.3147 38.5212 16.3106 38.5249 16.3057C38.5285 16.3009 38.5304 16.2956 38.5303 16.2902C38.5302 16.2853 38.5283 16.2805 38.5248 16.2762C38.5213 16.2719 38.5163 16.2682 38.5102 16.2655C38.496 16.2599 38.4728 16.2611 38.4576 16.2611H38.4136V16.4588H38.4132ZM11.5584 16.6126H10.0044L10.928 13.3063L8.80156 16.6126H7.38456L7.12556 13.3253L6.19911 16.6126H4.78857L5.99388 12.3117H8.41875L8.54703 14.9743L10.2567 12.3117H12.7835L11.5584 16.6126ZM28.9254 16.5697C28.5002 16.649 28.1678 16.6831 27.8086 16.6831C27.0136 16.6831 26.5795 16.4122 26.5795 15.9151C26.5795 15.8167 26.5955 15.712 26.6252 15.6012L26.7198 15.2593L26.7925 14.9824L27.5128 12.3115H29.0583L28.8344 13.1148H29.6274L29.4144 13.9651H28.618L28.2084 15.4245C28.1932 15.4721 28.1843 15.5206 28.1819 15.5694C28.1819 15.75 28.3427 15.8286 28.7121 15.8286C28.889 15.8286 29.0262 15.8177 29.1313 15.7959L28.9254 16.5697ZM33.4642 13.1435C33.3339 13.1086 33.3033 13.1086 33.2882 13.1057C33.2058 13.0934 33.1619 13.0862 33.1543 13.0853C33.1027 13.0792 33.0503 13.0763 32.9979 13.0766C32.4877 13.0766 32.1199 13.2309 31.6443 13.6445L31.7815 13.1145H30.3741L29.4269 16.6124H30.982C31.5383 14.4732 31.7766 14.0986 32.5225 14.0986C32.5788 14.0986 32.6437 14.1016 32.7191 14.1074L32.9007 14.1326L33.4642 13.1435ZM22.765 14.2198C22.765 14.6617 23.1315 14.9661 23.9623 15.1947C24.599 15.3705 24.6973 15.4219 24.6973 15.5808C24.6973 15.7985 24.4167 15.8967 23.795 15.8967C23.3256 15.8967 22.8895 15.8539 22.386 15.7583L22.1703 16.5652L22.2399 16.5731L22.5279 16.609C22.6207 16.6198 22.7574 16.6302 22.9388 16.6395C23.3127 16.6592 23.602 16.6685 23.8059 16.6685C25.4647 16.6685 26.231 16.2992 26.231 15.5013C26.231 15.0213 25.9107 14.7398 25.123 14.5278C24.4638 14.3507 24.3875 14.3114 24.3875 14.1482C24.3875 13.9597 24.6489 13.8628 25.1569 13.8628C25.4659 13.8628 25.887 13.8825 26.2866 13.9153L26.5105 13.1056C26.1036 13.068 25.4862 13.0371 25.1272 13.0371C23.3685 13.0373 22.7597 13.5747 22.765 14.2198ZM16.6102 16.6126H15.3188L15.349 16.25C14.9557 16.537 14.4314 16.673 13.7189 16.673C12.8768 16.673 12.2988 16.2834 12.2988 15.7177C12.2988 14.8656 13.3029 14.3689 15.0286 14.3689C15.2055 14.3689 15.4302 14.3784 15.6617 14.3958C15.7099 14.2809 15.7231 14.2313 15.7231 14.1687C15.7231 13.9371 15.452 13.8505 14.7263 13.8505C14.2826 13.8505 13.7811 13.8884 13.4349 13.948L13.2197 13.9851L13.0802 14.0077L13.2957 13.2213C14.0705 13.0865 14.5818 13.0355 15.1562 13.0355C16.4918 13.0355 17.1976 13.3908 17.1976 14.0615C17.1976 14.2341 17.1742 14.3652 17.0714 14.7545L16.7466 15.9954L16.6919 16.2181L16.6522 16.3959L16.6256 16.5176L16.6102 16.6126ZM15.4766 15.0542C15.3613 15.0445 15.2453 15.0397 15.1292 15.0398C14.2485 15.0398 13.8023 15.2187 13.8023 15.5719C13.8023 15.7896 14.0201 15.9286 14.3598 15.9286C14.9934 15.9288 15.4498 15.5715 15.4766 15.0542ZM21.7083 16.537C21.1893 16.632 20.6537 16.6798 20.116 16.6789C18.3786 16.678 17.4731 16.1406 17.4731 15.1118C17.4731 13.9111 18.6251 13.0271 20.1889 13.0271C21.4683 13.0271 22.2852 13.5222 22.2852 14.2985C22.2852 14.5562 22.2294 14.8075 22.0944 15.1621H19.0046C18.9951 15.1984 18.9901 15.2351 18.9896 15.2719C18.9896 15.6774 19.4503 15.8842 20.3529 15.8842C20.9079 15.8842 21.4096 15.8158 21.9666 15.6629L21.7083 16.537ZM20.8807 14.4557C20.8891 14.3829 20.8936 14.3233 20.8936 14.2773C20.8936 13.9932 20.6212 13.8265 20.1586 13.8265C19.6642 13.8265 19.3106 14.0501 19.1672 14.4536L20.8807 14.4557ZM38.2947 15.0267C38.0621 16.1903 36.8661 16.7063 35.2762 16.7063C33.5181 16.7063 32.8081 15.9817 32.8081 15.0939C32.8081 13.8542 34.0107 13.0143 35.8681 13.0143C37.4803 13.0143 38.3362 13.705 38.3362 14.5929C38.3362 14.809 38.3358 14.8233 38.2947 15.0267ZM36.6944 14.5791C36.6944 14.2132 36.4757 13.8678 35.8386 13.8678C35.0456 13.8678 34.5541 14.5046 34.5541 15.0669C34.5541 15.5411 34.891 15.8597 35.4464 15.8529C35.7833 15.8529 36.5016 15.5412 36.6437 14.9967C36.677 14.8698 36.6944 14.7304 36.6944 14.5791Z" fill="white"/>
</svg>
